<?xml version="1.0" encoding="UTF-8"?>
<svg width="603px" height="182px" viewBox="0 0 603 182" version="1.1" xmlns="http://www.w3.org/2000/svg" xmlns:xlink="http://www.w3.org/1999/xlink">
    <title>amazon</title>
    <defs>
        <filter color-interpolation-filters="auto" id="filter-1">
            <feColorMatrix in="SourceGraphic" type="matrix" values="0 0 0 0 0.733333 0 0 0 0 0.733333 0 0 0 0 0.733333 0 0 0 1.000000 0"></feColorMatrix>
        </filter>
    </defs>
    <g id="Page-1" stroke="none" stroke-width="1" fill="none" fill-rule="evenodd">
        <g filter="url(#filter-1)" id="amazon">
            <g transform="translate(0.000001, 0.000004)">
                <path d="M373.64245,141.93799 C338.64297,167.73538 287.91336,181.49922 244.236111,181.49922 C182.993561,181.49922 127.859551,158.84787 86.148541,121.17426 C82.871441,118.21174 85.807711,114.17436 89.740251,116.48143 C134.754561,142.67207 190.412941,158.4284 247.906481,158.4284 C286.68117,158.4284 329.33598,150.40603 368.55638,133.75834 C374.48139,131.24151 379.43637,137.63843 373.64245,141.93799" id="path8" fill="#000000" fill-rule="nonzero"></path>
                <path d="M388.19281,125.2903 C383.73593,119.57503 358.6202,122.58997 347.34696,123.92703 C343.91254,124.3465 343.38822,121.35778 346.48179,119.20798 C366.48525,105.12954 399.30875,109.19315 403.13641,113.91218 C406.96405,118.65744 402.14017,151.55959 383.34268,167.26346 C380.45883,169.67541 377.70606,168.3908 378.9907,165.19233 C383.2116,154.65316 392.67589,131.03179 388.19281,125.2903" id="path10" fill="#000000" fill-rule="nonzero"></path>
                <path d="M348.13347,19.81993 L348.13347,6.13474 C348.13347,4.06361 349.70648,2.67412 351.59409,2.67412 L412.86284,2.67412 C414.82912,2.67412 416.40213,4.08983 416.40213,6.13474 L416.40213,17.85367 C416.37593,19.81993 414.72425,22.38918 411.78795,26.45279 L380.03936,71.78172 C391.83695,71.49335 404.28995,73.24986 414.98642,79.27974 C417.39837,80.64301 418.05379,82.63549 418.23731,84.60177 L418.23731,99.20455 C418.23731,101.19703 416.03509,103.53031 413.72801,102.32435 C394.87809,92.44059 369.84101,91.3657 348.99862,102.42922 C346.87506,103.58276 344.64663,101.27568 344.64663,99.2832 L344.64663,85.41449 C344.64663,83.18606 344.67283,79.3846 346.90126,76.00263 L383.6835,23.25434 L351.67274,23.25434 C349.70648,23.25434 348.13347,21.86486 348.13347,19.81993" id="path12" fill="#000000" fill-rule="nonzero"></path>
                <path d="M124.634861,105.20819 L105.994691,105.20819 C104.211961,105.07712 102.796241,103.74006 102.665151,102.03595 L102.665151,6.37071 C102.665151,4.45688 104.264381,2.93629 106.256861,2.93629 L123.638621,2.93629 C125.447601,3.01489 126.889511,4.40443 127.020611,6.13474 L127.020611,18.64019 L127.361431,18.64019 C131.896941,6.55421 140.417401,0.91759 151.900391,0.91759 C163.566881,0.91759 170.855161,6.55421 176.098531,18.64019 C180.607831,6.55421 190.858611,0.91759 201.843481,0.91759 C209.656101,0.91759 218.202791,4.14226 223.419941,11.37811 C229.318731,19.42668 228.112751,31.11939 228.112751,41.37019 L228.086541,101.74758 C228.086541,103.66141 226.487311,105.20819 224.494831,105.20819 L205.880861,105.20819 C204.019481,105.07712 202.525121,103.58276 202.525121,101.74758 L202.525121,51.0442 C202.525121,47.00681 202.892141,36.93954 202.000781,33.11187 C200.611291,26.68876 196.442811,24.87978 191.042131,24.87978 C186.532831,24.87978 181.813801,27.89472 179.899971,32.71863 C177.986141,37.54253 178.169661,45.6173 178.169661,51.0442 L178.169661,101.74758 C178.169661,103.66141 176.570431,105.20819 174.577951,105.20819 L155.964001,105.20819 C154.076391,105.07712 152.608241,103.58276 152.608241,101.74758 L152.582031,51.0442 C152.582031,40.37395 154.338541,24.67005 141.099051,24.67005 C127.702231,24.67005 128.226571,39.98068 128.226571,51.0442 L128.226571,101.74758 C128.226571,103.66141 126.627341,105.20819 124.634861,105.20819" id="path14" fill="#000000" fill-rule="nonzero"></path>
                <path d="M469.15042,0.91759 C496.80919,0.91759 511.779,24.67005 511.779,54.87186 C511.779,84.0512 495.23616,107.20067 469.15042,107.20067 C441.98976,107.20067 427.20345,83.44821 427.20345,53.8494 C427.20345,24.06706 442.17328,0.91759 469.15042,0.91759 M469.30771,20.44915 C455.5701,20.44915 454.70471,39.16796 454.70471,50.83447 C454.70471,62.52718 454.52141,87.48561 469.15042,87.48561 C483.5959,87.48561 484.27754,67.35109 484.27754,55.08158 C484.27754,47.00681 483.93672,37.35901 481.49854,29.70368 C479.40119,23.04462 475.23273,20.44915 469.30771,20.44915" id="path16" fill="#000000" fill-rule="nonzero"></path>
                <path d="M547.64365,105.20819 L529.08213,105.20819 C527.22072,105.07712 525.72636,103.58276 525.72636,101.74758 L525.70016,6.05609 C525.85746,4.29956 527.40426,2.93629 529.29187,2.93629 L546.56878,2.93629 C548.19421,3.01489 549.53127,4.11605 549.89832,5.61041 L549.89832,20.2394 L550.23912,20.2394 C555.45629,7.1572 562.77077,0.91759 575.64324,0.91759 C584.00641,0.91759 592.15986,3.93253 597.40323,12.19083 C602.27956,19.84615 602.27956,32.71863 602.27956,41.97316 L602.27956,102.19327 C602.06983,103.87113 600.52303,105.20819 598.68787,105.20819 L579.99525,105.20819 C578.29114,105.07712 576.87543,103.81871 576.69193,102.19327 L576.69193,50.23148 C576.69193,39.77096 577.8979,24.46031 565.02542,24.46031 C560.48992,24.46031 556.32143,27.50148 554.2503,32.11563 C551.62863,37.962 551.28781,43.78214 551.28781,50.23148 L551.28781,101.74758 C551.26161,103.66141 549.63615,105.20819 547.64367,105.20819" id="path18" fill="#000000" fill-rule="nonzero"></path>
                <path d="M289.17177,0 C298.24281,0 310.09282,2.41195 317.25002,9.28076 C324.74873,16.2810064 325.457282,25.2161823 325.477619,35.0495532 L325.477643,36.0039388 C325.4745,37.7586588 325.45589,39.5405992 325.45589,41.34397 L325.45589,70.39223 C325.45589,79.12245 329.07381,82.95009 332.482,87.66914 C333.66177,89.347 333.92394,91.3657 332.4033,92.62411 C328.60186,95.79636 321.83791,101.69515 318.11512,104.99847 L318.088191,104.946 L317.925196,105.083862 C316.702501,106.052433 315.013607,106.093864 313.68453,105.39172 C307.49735,100.25322 306.37003,97.86749 302.98806,92.96494 C292.76349,103.39924 285.50141,106.51903 272.26191,106.51903 C256.55802,106.51903 244.367191,96.84502 244.367191,77.47079 C244.367191,62.34366 252.54686,52.04044 264.23957,47.00681 C274.35927,42.54993 288.49013,41.76344 299.29148,40.53125 L299.29148,38.1193 C299.29148,33.68864 299.6323,28.44527 297.01062,24.61763 C294.75597,21.18321 290.40396,19.7675 286.5501,19.7675 C279.44532,19.7675 273.12708,23.41164 271.58027,30.96209 C271.26567,32.63998 270.03349,34.29164 268.32938,34.37029 L250.265981,32.43023 C248.745401,32.08943 247.041311,30.85722 247.487001,28.52394 C251.62926,6.60666 271.4492,0 289.17177,0 Z M299.29148,55.47485 C285.78981,55.47485 271.55407,58.3587 271.55407,74.2461 C271.55407,82.29467 275.74876,87.74779 282.90596,87.74779 C288.12311,87.74779 292.84214,84.52312 295.80464,79.27974 C299.038052,73.5981698 299.280557,68.2217996 299.292471,62.0572568 L299.292292,60.5416459 C299.291896,60.2011301 299.29148,59.8580524 299.29148,59.51224 Z" id="path28" fill="#000000" fill-rule="nonzero"></path>
                <path d="M44.80459,0 C53.875601,0 65.725611,2.41195 72.882811,9.28076 C80.3815374,16.2810064 81.0900787,25.2161823 81.1104113,35.0495532 L81.1104354,36.0039388 C81.1072918,37.7586588 81.088681,39.5405992 81.088681,41.34397 L81.088681,70.39223 C81.088681,79.12245 84.706621,82.95009 88.114811,87.66914 C89.320781,89.347 89.582951,91.3657 88.062371,92.62411 C84.260931,95.79636 77.496991,101.69515 73.774181,104.99847 L73.721761,104.94597 L73.721761,104.94602 C72.489571,106.04713 70.706811,106.12578 69.317321,105.39172 C63.130161,100.25322 62.029041,97.86749 58.620851,92.96494 C48.39628,103.39924 41.16045,106.51903 27.89471,106.51903 C12.21703,106.51903 2.84217094e-14,96.84502 2.84217094e-14,77.47079 C2.84217094e-14,62.34366 8.20587,52.04044 19.87236,47.00681 C29.99206,42.54993 44.12294,41.76344 54.924291,40.53125 L54.924291,38.1193 C54.924291,33.68864 55.265111,28.44527 52.669641,24.61763 C50.38876,21.18321 46.03678,19.7675 42.20911,19.7675 C35.10436,19.7675 28.75987,23.41164 27.21308,30.96209 C26.89847,32.63998 25.66628,34.29164 23.98841,34.37029 L5.89879,32.43023 C4.37821,32.08943 2.70033,30.85722 3.1198,28.52394 C7.28828,6.60666 27.08199,0 44.80459,0 Z M54.924291,55.47485 C41.44882,55.47485 27.21308,58.3587 27.21308,74.2461 C27.21308,82.29467 31.38155,87.74779 38.53875,87.74779 C43.78212,87.74779 48.47493,84.52312 51.43745,79.27974 C54.6708456,73.5981698 54.9133635,68.2217996 54.9252811,62.0572568 L54.9251033,60.5416459 C54.9247071,60.2011301 54.924291,59.8580524 54.924291,59.51224 Z" id="path30" fill="#000000" fill-rule="nonzero"></path>
            </g>
        </g>
    </g>
</svg>