<?xml version="1.0" encoding="UTF-8"?>
<svg width="169px" height="30px" viewBox="0 0 169 30" version="1.1" xmlns="http://www.w3.org/2000/svg" xmlns:xlink="http://www.w3.org/1999/xlink">
    <title>logo-mai2 (1)</title>
    <g id="Page-1" stroke="none" stroke-width="1" fill="none" fill-rule="evenodd">
        <g id="logo-mai2-(1)" transform="translate(1.000000, 1.000000)">
            <g id="Group-3">
                <g id="Group" transform="translate(36.950000, 7.340000)">
                    <g id="Group-16" transform="translate(-0.000000, 0.010000)" stroke="#FFFFFF" stroke-width="2.3">
                        <line x1="0.5" y1="9.3135376e-16" x2="0.5" y2="10" id="Line-5" stroke-linecap="square"></line>
                        <circle id="Oval" cx="6.725" cy="11.275" r="6.225"></circle>
                    </g>
                    <g id="Group-16" transform="translate(122.919554, 8.700000) scale(-1, 1) translate(-122.919554, -8.700000) translate(116.544554, 0.000000)" stroke="#FFFFFF" stroke-width="2.5">
                        <line x1="0.5" y1="9.3135376e-16" x2="0.5" y2="10" id="Line-5" stroke-linecap="square"></line>
                        <circle id="Oval" cx="6.625" cy="11.275" r="6.125"></circle>
                    </g>
                    <g id="Group-17" transform="translate(66.799518, 5.050000)" stroke="#FFFFFF" stroke-width="2.3">
                        <g id="Group-14" transform="translate(6.225000, 6.225000) scale(-1, 1) translate(-6.225000, -6.225000) ">
                            <circle id="Oval" cx="6.225" cy="6.225" r="6.225"></circle>
                        </g>
                    </g>
                    <g id="n" transform="translate(89.998277, 11.420585) scale(-1, 1) rotate(-180.000000) translate(-89.998277, -11.420585) translate(83.899518, 4.181170)" fill="#FFFFFF" fill-rule="nonzero">
                        <path d="M6.2575181,0 C8.0755181,0 9.5200181,0.513925234 10.5910181,1.5417757 C11.6620181,2.56962617 12.1975181,4.07626168 12.1975181,6.06168224 L12.1975181,14.4788296 L9.6055181,14.4788296 L9.6055181,6.35158879 C9.6055181,4.99869159 9.2725181,3.97962617 8.6065181,3.29439252 C7.9405181,2.60915888 6.9865181,2.26654206 5.7445181,2.26654206 C4.3405181,2.26654206 2.3290181,0.96635514 3.2200181,0.579813084 C4.1110181,0.193271028 5.1235181,0 6.2575181,0 Z" id="Path"></path>
                        <path d="M3.25751805,1.13686838e-13 C5.07551805,1.13686838e-13 6.52001805,0.513925234 7.59101805,1.5417757 C8.66201805,2.56962617 9.19751805,4.07626168 9.19751805,6.06168224 L9.19751805,14.4788296 L6.60551805,14.4788296 L6.60551805,6.35158879 C6.60551805,4.99869159 6.27251805,3.97962617 5.60651805,3.29439252 C4.94051805,2.60915888 3.98651805,2.26654206 2.74451805,2.26654206 C1.34051805,2.26654206 -0.670981954,0.96635514 0.220018046,0.579813084 C1.11101805,0.193271028 2.12351805,1.13686838e-13 3.25751805,1.13686838e-13 Z" id="Path" transform="translate(4.598759, 7.239415) scale(-1, 1) translate(-4.598759, -7.239415) "></path>
                    </g>
                    <g id="n" transform="translate(99.597036, 3.860000)" fill="#FFFFFF" fill-rule="nonzero">
                        <path d="M6.2575181,0 C8.0755181,0 9.5200181,0.513925234 10.5910181,1.5417757 C11.6620181,2.56962617 12.1975181,4.07626168 12.1975181,6.06168224 L12.1975181,14.7259379 L9.6055181,14.7259379 L9.6055181,6.35158879 C9.6055181,4.99869159 9.2725181,3.97962617 8.6065181,3.29439252 C7.9405181,2.60915888 6.9865181,2.26654206 5.7445181,2.26654206 C4.3405181,2.26654206 2.3290181,0.96635514 3.2200181,0.579813084 C4.1110181,0.193271028 5.1235181,0 6.2575181,0 Z" id="Path"></path>
                        <path d="M3.25751805,1.13686838e-13 C5.07551805,1.13686838e-13 6.52001805,0.513925234 7.59101805,1.5417757 C8.66201805,2.56962617 9.19751805,4.07626168 9.19751805,6.06168224 L9.19751805,14.7259379 L6.60551805,14.7259379 L6.60551805,6.35158879 C6.60551805,4.99869159 6.27251805,3.97962617 5.60651805,3.29439252 C4.94051805,2.60915888 3.98651805,2.26654206 2.74451805,2.26654206 C1.34051805,2.26654206 -0.670981954,0.96635514 0.220018046,0.579813084 C1.11101805,0.193271028 2.12351805,1.13686838e-13 3.25751805,1.13686838e-13 Z" id="Path" transform="translate(4.598759, 7.362969) scale(-1, 1) translate(-4.598759, -7.362969) "></path>
                    </g>
                    <g id="n" transform="translate(34.356000, 3.860000)" fill="#FFFFFF" fill-rule="nonzero">
                        <path d="M6.2575181,0 C8.0755181,0 9.5200181,0.513925234 10.5910181,1.5417757 C11.6620181,2.56962617 12.1975181,4.07626168 12.1975181,6.06168224 L12.1975181,14.61 L9.6055181,14.61 L9.6055181,6.35158879 C9.6055181,4.99869159 9.2725181,3.97962617 8.6065181,3.29439252 C7.9405181,2.60915888 6.9865181,2.26654206 5.7445181,2.26654206 C4.3405181,2.26654206 2.3290181,0.96635514 3.2200181,0.579813084 C4.1110181,0.193271028 5.1235181,0 6.2575181,0 Z" id="Path"></path>
                        <path d="M3.25751805,1.13686838e-13 C5.07551805,1.13686838e-13 6.52001805,0.513925234 7.59101805,1.5417757 C8.66201805,2.56962617 9.19751805,4.07626168 9.19751805,6.06168224 L9.19751805,14.61 L6.60551805,14.61 L6.60551805,6.35158879 C6.60551805,4.99869159 6.27251805,3.97962617 5.60651805,3.29439252 C4.94051805,2.60915888 3.98651805,2.26654206 2.74451805,2.26654206 C1.34051805,2.26654206 -0.670981954,0.96635514 0.220018046,0.579813084 C1.11101805,0.193271028 2.12351805,1.13686838e-13 3.25751805,1.13686838e-13 Z" id="Path" transform="translate(4.598759, 7.305000) scale(-1, 1) translate(-4.598759, -7.305000) "></path>
                    </g>
                    <g id="s" transform="translate(50.053518, 4.060000)" fill="#FFFFFF" fill-rule="nonzero">
                        <path d="M5.913,14.607 C4.743,14.607 3.618,14.4495 2.538,14.1345 C1.458,13.8195 0.612,13.419 0,12.933 L1.08,10.881 C1.71,11.331 2.475,11.691 3.375,11.961 C4.275,12.231 5.184,12.366 6.102,12.366 C8.37,12.366 9.504,11.718 9.504,10.422 C9.504,9.99 9.351,9.648 9.045,9.396 C8.739,9.144 8.3565,8.9595 7.8975,8.8425 C7.4385,8.7255 6.786,8.595 5.94,8.451 C4.788,8.271 3.8475,8.064 3.1185,7.83 C2.3895,7.596 1.764,7.2 1.242,6.642 C0.72,6.084 0.459,5.301 0.459,4.293 C0.459,2.997 0.999,1.9575 2.079,1.1745 C3.159,0.3915 4.608,0 6.426,0 C7.38,0 8.334,0.117 9.288,0.351 C10.242,0.585 11.025,0.9 11.637,1.296 L10.53,3.348 C9.36,2.592 7.983,2.214 6.399,2.214 C5.301,2.214 4.464,2.394 3.888,2.754 C3.312,3.114 3.024,3.591 3.024,4.185 C3.024,4.653 3.186,5.022 3.51,5.292 C3.834,5.562 4.2345,5.76 4.7115,5.886 C5.1885,6.012 5.859,6.156 6.723,6.318 C7.875,6.516 8.8065,6.7275 9.5175,6.9525 C10.2285,7.1775 10.836,7.56 11.34,8.1 C11.844,8.64 12.096,9.396 12.096,10.368 C12.096,11.664 11.5425,12.6945 10.4355,13.4595 C9.3285,14.2245 7.821,14.607 5.913,14.607 Z" id="Path"></path>
                    </g>
                </g>
                <path d="M11.5,25.2327128 C15.8705381,25.2327128 19.4135593,21.7580078 19.4135593,17.471742 C19.4135593,13.1854762 15.8705381,9.71077128 11.5,9.71077128 C10.4135295,9.71077128 10.508331,9.85831792 9.45561751,10.0071259 C8.83819488,10.0944026 8.19957791,9.38509689 8.05,8.50566181 C7.90393046,7.64685404 8.33090673,6.69046708 8.83819488,6.54480976 C9.8649555,6.24999665 10.3760512,6.19348404 11.5,6.19348404 C17.8512746,6.19348404 23,11.2429321 23,17.471742 C23,23.7005519 17.8512746,28.75 11.5,28.75 C5.14872538,28.75 0,23.7005519 0,17.471742 L0.00311864407,17.2805851 L0.00032362422,1.79322031 C0,0.803030796 0.80270726,0 1.79289677,0 C1.79300463,0 1.79311248,0 1.79322034,0 C2.78358859,0 3.58644068,0.802852093 3.58644068,1.79322034 C3.58644068,6.07545321 3.58644068,10.3576861 3.58644068,14.639919 C3.58644068,15.269213 3.58644068,16.213154 3.58644068,17.471742 C3.58644068,21.7580078 7.12946186,25.2327128 11.5,25.2327128 Z" id="Combined-Shape" stroke="#FFFFFF" stroke-width="0.5" fill="#FFFFFF" fill-rule="nonzero"></path>
                <g id="Oval" transform="translate(7.610000, 13.552349)" fill="#FFFFFF" fill-rule="nonzero">
                    <g id="path-1-link">
                        <path d="M3.9,7.8 C6.05391052,7.8 7.8,6.05391052 7.8,3.9 C7.8,1.74608948 6.05391052,0 3.9,0 C1.74608948,0 0,1.74608948 0,3.9 C0,6.05391052 1.74608948,7.8 3.9,7.8 Z" id="path-1"></path>
                    </g>
                </g>
            </g>
            <g id="e" transform="translate(53.900000, 11.300000)" fill="#FFFFFF" fill-rule="nonzero">
                <path d="M14.256,7.371 C14.256,7.569 14.238,7.83 14.202,8.154 L2.592,8.154 C2.754,9.414 3.3075,10.4265 4.2525,11.1915 C5.1975,11.9565 6.372,12.339 7.776,12.339 C9.486,12.339 10.863,11.763 11.907,10.611 L13.338,12.285 C12.69,13.041 11.8845,13.617 10.9215,14.013 C9.9585,14.409 8.883,14.607 7.695,14.607 C6.183,14.607 4.842,14.2965 3.672,13.6755 C2.502,13.0545 1.5975,12.186 0.9585,11.07 C0.3195,9.954 0,8.694 0,7.29 C0,5.904 0.3105,4.653 0.9315,3.537 C1.5525,2.421 2.4075,1.5525 3.4965,0.9315 C4.5855,0.3105 5.814,0 7.182,0 C8.55,0 9.7695,0.3105 10.8405,0.9315 C11.9115,1.5525 12.7485,2.421 13.3515,3.537 C13.9545,4.653 14.256,5.931 14.256,7.371 Z M7.182,2.187 C5.94,2.187 4.9005,2.565 4.0635,3.321 C3.2265,4.077 2.736,5.067 2.592,6.291 L11.772,6.291 C11.628,5.085 11.1375,4.0995 10.3005,3.3345 C9.4635,2.5695 8.424,2.187 7.182,2.187 Z" id="Shape"></path>
            </g>
        </g>
    </g>
</svg>