<?xml version="1.0" encoding="UTF-8"?>
<svg width="145px" height="17px" viewBox="0 0 145 17" version="1.1" xmlns="http://www.w3.org/2000/svg" xmlns:xlink="http://www.w3.org/1999/xlink">
    <title>bose</title>
    <g id="Page-1" stroke="none" stroke-width="1" fill="none" fill-rule="evenodd">
        <g id="bose" transform="translate(0.459302, 0.000000)" fill="#BBBBBB" fill-rule="nonzero">
            <path d="M99.198279,17 L109.469588,0 L143.884954,0 L143.884954,2.802968 L118.069428,2.802968 L115.519608,7.091509 L129.147659,7.091509 L127.505202,9.894477 L113.805522,9.894477 L111.183473,14.183017 L124.883553,14.183017 L123.169268,17 L99.198279,17 Z M74.4921968,12.571311 L84.8209283,12.571311 C84.4753901,13.06183 84.3167266,13.55235 84.5330132,13.860676 C84.9073629,14.407255 86.2328931,14.140778 86.5788315,14.028854 C87.270108,13.818631 87.6448579,13.398186 87.9757903,12.837593 L89.7046818,9.894477 L79.1742697,9.894477 C76.9697879,9.894477 76.8979591,8.619126 77.7913165,7.091509 L81.0324129,1.73784 C81.997599,0.196208 83.2943177,0 84.9507803,0 L103.260504,0 C105.119048,0 105.119048,1.471558 104.369948,2.802968 L103.332733,4.610882 L92.9461784,4.610882 C93.2631052,4.022259 93.2771108,3.50371 93.032613,3.181369 C92.6292516,2.648805 91.5632252,2.760923 91.0014005,3.04122 C90.5548219,3.279472 90.1802721,3.685903 89.7767106,4.3446 L88.120248,7.091509 L98.305122,7.091509 C100.451781,7.091509 100.783113,8.619321 100.105842,9.894477 L97.008603,14.925804 C96.1730692,16.257214 94.732693,17 93.0758303,17 L74.8959583,17 C73.1096438,17 72.4903961,15.850783 73.2535014,14.589448 L74.4921968,12.571311 L74.4921968,12.571311 Z M52.7394958,2.802968 C54.3961584,0 57.147659,0 59.2797118,0 L74.8381352,0 C76.480192,0 77.8631452,1.33141 76.9697879,2.802968 L70.0984393,14.183017 C68.6434573,16.453421 67.4765906,17 65.6182473,17 L47.5102041,17 C45.7238895,17 44.9027611,15.72465 45.8679472,14.183017 L52.7394958,2.802968 Z M61.7719087,4.3446 L56.5282112,12.837593 C56.3553421,13.145919 56.2833133,13.426021 56.3841536,13.650453 C56.7154862,14.351195 58.7466986,14.225062 59.452581,14.084913 C60.4609844,13.860676 60.7202881,13.159934 60.9363745,12.837593 L66.1080432,4.3446 C66.4681872,3.741962 66.4249699,3.349547 66.1080432,3.111294 C65.6470588,2.760923 64.2352941,2.732894 63.4573829,2.943116 C62.7947178,3.125309 62.2472989,3.531739 61.7719087,4.3446 L61.7719087,4.3446 Z M27.6158463,0 L47.5822329,0 C49.1668667,0 50.4057623,1.401484 49.3685474,3.083265 L47.3085234,6.488871 C46.4153661,8.030503 44.9027611,8.759275 43.7935174,8.759275 C44.9027611,9.361913 44.9027611,10.426846 44.3409363,11.366035 L42.2809123,14.855535 C41.7334934,15.794529 40.8979592,17 38.362545,17 L0,17 L0,14.183017 L19.0156062,14.183017 L27.6158463,0 Z M33.6086434,7.091509 L38.6938775,7.091509 C39.87515,7.091509 40.3505402,6.488871 40.6242497,5.956307 L41.6614646,4.3446 C42.0792317,3.615829 42.0792317,2.802968 41.1860744,2.802968 L36.2160864,2.802968 L33.6086434,7.091509 L33.6086434,7.091509 Z M29.272509,14.183017 L34.3577431,14.183017 C35.5390156,14.183017 36.0144057,13.580185 36.2879151,13.047815 L37.3253301,11.436109 C37.7430972,10.693322 37.7430972,9.894477 36.8355342,9.894477 L31.879952,9.894477 L29.272509,14.183017 L29.272509,14.183017 Z M142.544818,6.208574 C141.752701,6.208574 141.07543,5.605936 141.07543,4.793075 C141.07543,3.980214 141.752701,3.391591 142.544818,3.391591 C143.337335,3.391591 144,3.980214 144,4.793075 C144.0002,5.605936 143.337335,6.208574 142.544818,6.208574 Z M141.363545,4.793075 C141.363545,5.465787 141.882553,5.970322 142.544818,5.970322 C143.193077,5.970322 143.711685,5.465787 143.711685,4.793075 C143.711685,4.120363 143.193077,3.615829 142.544818,3.615829 C141.882553,3.615829 141.363545,4.120363 141.363545,4.793075 Z M142.242497,4.905194 L142.242497,5.605936 L141.983393,5.605936 L141.983393,3.980214 L142.617247,3.980214 C143.020608,3.980214 143.207683,4.120363 143.207683,4.442704 C143.207683,4.737016 143.020408,4.863149 142.77551,4.891179 L143.2511,5.605936 L142.962785,5.605936 L142.530612,4.905194 L142.242497,4.905194 Z M142.242497,4.694971 L142.545018,4.694971 C142.761104,4.694971 142.948779,4.680956 142.948779,4.428689 C142.948779,4.232481 142.761104,4.190437 142.588435,4.190437 L142.242497,4.190437 L142.242497,4.694971 L142.242497,4.694971 Z" id="Shape"></path>
        </g>
    </g>
</svg>