<?xml version="1.0" encoding="UTF-8"?>
<svg width="145px" height="17px" viewBox="0 0 145 17" version="1.1" xmlns="http://www.w3.org/2000/svg" xmlns:xlink="http://www.w3.org/1999/xlink">
    <title>Shape</title>
    <g id="Page-1" stroke="none" stroke-width="1" fill="none" fill-rule="evenodd">
        <g id="home2" transform="translate(-888.000000, -784.000000)" fill="#000000" fill-rule="nonzero">
            <g id="Group-9" transform="translate(885.459302, 659.000000)">
                <path d="M102.198279,142 L112.469588,125 L146.884954,125 L146.884954,127.802968 L121.069428,127.802968 L118.519608,132.091509 L132.147659,132.091509 L130.505202,134.894477 L116.805522,134.894477 L114.183473,139.183017 L127.883553,139.183017 L126.169268,142 L102.198279,142 Z M77.4921968,137.571311 L87.8209283,137.571311 C87.4753901,138.06183 87.3167266,138.55235 87.5330132,138.860676 C87.9073629,139.407255 89.2328931,139.140778 89.5788315,139.028854 C90.270108,138.818631 90.6448579,138.398186 90.9757903,137.837593 L92.7046818,134.894477 L82.1742697,134.894477 C79.9697879,134.894477 79.8979591,133.619126 80.7913165,132.091509 L84.0324129,126.73784 C84.997599,125.196208 86.2943177,125 87.9507803,125 L106.260504,125 C108.119048,125 108.119048,126.471558 107.369948,127.802968 L106.332733,129.610882 L95.9461784,129.610882 C96.2631052,129.022259 96.2771108,128.50371 96.032613,128.181369 C95.6292516,127.648805 94.5632252,127.760923 94.0014005,128.04122 C93.5548219,128.279472 93.1802721,128.685903 92.7767106,129.3446 L91.120248,132.091509 L101.305122,132.091509 C103.451781,132.091509 103.783113,133.619321 103.105842,134.894477 L100.008603,139.925804 C99.1730692,141.257214 97.732693,142 96.0758303,142 L77.8959583,142 C76.1096438,142 75.4903961,140.850783 76.2535014,139.589448 L77.4921968,137.571311 L77.4921968,137.571311 Z M55.7394958,127.802968 C57.3961584,125 60.147659,125 62.2797118,125 L77.8381352,125 C79.480192,125 80.8631452,126.33141 79.9697879,127.802968 L73.0984393,139.183017 C71.6434573,141.453421 70.4765906,142 68.6182473,142 L50.5102041,142 C48.7238895,142 47.9027611,140.72465 48.8679472,139.183017 L55.7394958,127.802968 Z M64.7719087,129.3446 L59.5282112,137.837593 C59.3553421,138.145919 59.2833133,138.426021 59.3841536,138.650453 C59.7154862,139.351195 61.7466986,139.225062 62.452581,139.084913 C63.4609844,138.860676 63.7202881,138.159934 63.9363745,137.837593 L69.1080432,129.3446 C69.4681872,128.741962 69.4249699,128.349547 69.1080432,128.111294 C68.6470588,127.760923 67.2352941,127.732894 66.4573829,127.943116 C65.7947178,128.125309 65.2472989,128.531739 64.7719087,129.3446 L64.7719087,129.3446 Z M30.6158463,125 L50.5822329,125 C52.1668667,125 53.4057623,126.401484 52.3685474,128.083265 L50.3085234,131.488871 C49.4153661,133.030503 47.9027611,133.759275 46.7935174,133.759275 C47.9027611,134.361913 47.9027611,135.426846 47.3409363,136.366035 L45.2809123,139.855535 C44.7334934,140.794529 43.8979592,142 41.362545,142 L3,142 L3,139.183017 L22.0156062,139.183017 L30.6158463,125 Z M36.6086434,132.091509 L41.6938775,132.091509 C42.87515,132.091509 43.3505402,131.488871 43.6242497,130.956307 L44.6614646,129.3446 C45.0792317,128.615829 45.0792317,127.802968 44.1860744,127.802968 L39.2160864,127.802968 L36.6086434,132.091509 L36.6086434,132.091509 Z M32.272509,139.183017 L37.3577431,139.183017 C38.5390156,139.183017 39.0144057,138.580185 39.2879151,138.047815 L40.3253301,136.436109 C40.7430972,135.693322 40.7430972,134.894477 39.8355342,134.894477 L34.879952,134.894477 L32.272509,139.183017 L32.272509,139.183017 Z M145.544818,131.208574 C144.752701,131.208574 144.07543,130.605936 144.07543,129.793075 C144.07543,128.980214 144.752701,128.391591 145.544818,128.391591 C146.337335,128.391591 147,128.980214 147,129.793075 C147.0002,130.605936 146.337335,131.208574 145.544818,131.208574 Z M144.363545,129.793075 C144.363545,130.465787 144.882553,130.970322 145.544818,130.970322 C146.193077,130.970322 146.711685,130.465787 146.711685,129.793075 C146.711685,129.120363 146.193077,128.615829 145.544818,128.615829 C144.882553,128.615829 144.363545,129.120363 144.363545,129.793075 Z M145.242497,129.905194 L145.242497,130.605936 L144.983393,130.605936 L144.983393,128.980214 L145.617247,128.980214 C146.020608,128.980214 146.207683,129.120363 146.207683,129.442704 C146.207683,129.737016 146.020408,129.863149 145.77551,129.891179 L146.2511,130.605936 L145.962785,130.605936 L145.530612,129.905194 L145.242497,129.905194 Z M145.242497,129.694971 L145.545018,129.694971 C145.761104,129.694971 145.948779,129.680956 145.948779,129.428689 C145.948779,129.232481 145.761104,129.190437 145.588435,129.190437 L145.242497,129.190437 L145.242497,129.694971 L145.242497,129.694971 Z" id="Shape"></path>
            </g>
        </g>
    </g>
</svg>