<svg width="18" height="17" viewBox="0 0 18 17" fill="none" xmlns="http://www.w3.org/2000/svg">
    <g clip-path="url(#clip0_0_2010)">
        <path d="M1 1L4.29412 2.88235L4.76471 10.8824H15.1176L17.5 3.5" stroke="white" stroke-width="1.7"/>
        <path d="M5.23531 15.5882C6.01501 15.5882 6.64708 14.9561 6.64708 14.1764C6.64708 13.3967 6.01501 12.7646 5.23531 12.7646C4.45562 12.7646 3.82355 13.3967 3.82355 14.1764C3.82355 14.9561 4.45562 15.5882 5.23531 15.5882Z" fill="white" stroke="white" stroke-width="0.5"/>
        <path d="M14.6471 15.5882C15.4268 15.5882 16.0588 14.9561 16.0588 14.1764C16.0588 13.3967 15.4268 12.7646 14.6471 12.7646C13.8674 12.7646 13.2353 13.3967 13.2353 14.1764C13.2353 14.9561 13.8674 15.5882 14.6471 15.5882Z" fill="white" stroke="white" stroke-width="0.5"/>
        <line x1="18" y1="3.85" x2="9" y2="3.85" stroke="white" stroke-width="1.7"/>
    </g>
    <defs>
        <clipPath id="clip0_0_2010">
            <rect width="18" height="17" fill="white"/>
        </clipPath>
    </defs>
</svg>
