<?xml version="1.0" encoding="UTF-8"?>
<svg width="12px" height="13px" viewBox="0 0 12 13" version="1.1" xmlns="http://www.w3.org/2000/svg" xmlns:xlink="http://www.w3.org/1999/xlink">
    <title>control-prev</title>
    <defs>
        <filter color-interpolation-filters="auto" id="filter-1">
            <feColorMatrix in="SourceGraphic" type="matrix" values="0 0 0 0 0.847000 0 0 0 0 0.847000 0 0 0 0 0.847000 0 0 0 1.000000 0"></feColorMatrix>
        </filter>
    </defs>
    <g id="Page-1" stroke="none" stroke-width="1" fill="none" fill-rule="evenodd">
        <g id="control-prev" transform="translate(0.000000, -13.000000)" filter="url(#filter-1)">
            <g transform="translate(0.000000, 13.000000)">
                <path d="M1.21732064,0.107823352 C1.09353255,0.0372082822 0.952799076,0 0.809495568,0 C0.362423535,0 0,0.354487145 0,0.791769119 L0,4.73762636 L0,7.92891025 L0,11.8747676 C0,12.0149322 0.038041098,12.1525847 0.110237279,12.2736615 C0.335473341,12.6513944 0.831130884,12.7790164 1.21732064,12.5587134 L9.33333349,7.92891025 L9.33333349,11.3333323 C9.33333349,12.0697119 9.93028621,12.6666656 10.6666661,12.6666656 C11.4030459,12.6666656 12,12.0697119 12,11.3333323 L12,1.33333326 C12,0.596953684 11.4030459,0 10.6666661,0 C9.93028621,0 9.33333349,0.596953684 9.33333349,1.33333326 L9.33333349,4.73762636 L1.21732064,0.107823352 Z" id="Next" fill="#A1A4B2" fill-rule="nonzero" transform="translate(6.000000, 6.333333) scale(-1, 1) translate(-6.000000, -6.333333) "></path>
            </g>
        </g>
    </g>
</svg>