<?xml version="1.0" encoding="UTF-8"?>
<svg width="270px" height="90px" viewBox="0 0 270 90" version="1.1" xmlns="http://www.w3.org/2000/svg" xmlns:xlink="http://www.w3.org/1999/xlink">
    <title>google</title>
    <defs>
        <filter color-interpolation-filters="auto" id="filter-1">
            <feColorMatrix in="SourceGraphic" type="matrix" values="0 0 0 0 0.733333 0 0 0 0 0.733333 0 0 0 0 0.733333 0 0 0 1.000000 0"></feColorMatrix>
        </filter>
    </defs>
    <g id="Page-1" stroke="none" stroke-width="1" fill="none" fill-rule="evenodd">
        <g filter="url(#filter-1)" id="google">
            <g transform="translate(0.360000, 0.470000)">
                <path d="M115.39,46.71 C115.39,59.48 105.4,68.89 93.14,68.89 C80.88,68.89 70.89,59.48 70.89,46.71 C70.89,33.85 80.88,24.53 93.14,24.53 C105.4,24.53 115.39,33.85 115.39,46.71 Z M105.65,46.71 C105.65,38.73 99.86,33.27 93.14,33.27 C86.42,33.27 80.63,38.73 80.63,46.71 C80.63,54.61 86.42,60.15 93.14,60.15 C99.86,60.15 105.65,54.6 105.65,46.71 Z" id="Shape" fill="#000000" fill-rule="nonzero"></path>
                <path d="M163.39,46.71 C163.39,59.48 153.4,68.89 141.14,68.89 C128.88,68.89 118.89,59.48 118.89,46.71 C118.89,33.86 128.88,24.53 141.14,24.53 C153.4,24.53 163.39,33.85 163.39,46.71 Z M153.65,46.71 C153.65,38.73 147.86,33.27 141.14,33.27 C134.42,33.27 128.63,38.73 128.63,46.71 C128.63,54.61 134.42,60.15 141.14,60.15 C147.86,60.15 153.65,54.6 153.65,46.71 Z" id="Shape" fill="#000000" fill-rule="nonzero"></path>
                <path d="M209.39,25.87 L209.39,65.69 C209.39,82.07 199.73,88.76 188.31,88.76 C177.56,88.76 171.09,81.57 168.65,75.69 L177.13,72.16 C178.64,75.77 182.34,80.03 188.3,80.03 C195.61,80.03 200.14,75.52 200.14,67.03 L200.14,63.84 L199.8,63.84 C197.62,66.53 193.42,68.88 188.12,68.88 C177.03,68.88 166.87,59.22 166.87,46.79 C166.87,34.27 177.03,24.53 188.12,24.53 C193.41,24.53 197.61,26.88 199.8,29.49 L200.14,29.49 L200.14,25.88 L209.39,25.88 L209.39,25.87 Z M200.83,46.79 C200.83,38.98 195.62,33.27 188.99,33.27 C182.27,33.27 176.64,38.98 176.64,46.79 C176.64,54.52 182.27,60.15 188.99,60.15 C195.62,60.15 200.83,54.52 200.83,46.79 Z" id="Shape" fill="#000000" fill-rule="nonzero"></path>
                <polygon id="Path" fill="#000000" fill-rule="nonzero" points="224.64 2.53 224.64 67.53 215.14 67.53 215.14 2.53"></polygon>
                <path d="M261.66,54.01 L269.22,59.05 C266.78,62.66 260.9,68.88 250.74,68.88 C238.14,68.88 228.73,59.14 228.73,46.7 C228.73,33.51 238.22,24.52 249.65,24.52 C261.16,24.52 266.79,33.68 268.63,38.63 L269.64,41.15 L239.99,53.43 C242.26,57.88 245.79,60.15 250.74,60.15 C255.7,60.15 259.14,57.71 261.66,54.01 Z M238.39,46.03 L258.21,37.8 C257.12,35.03 253.84,33.1 249.98,33.1 C245.03,33.1 238.14,37.47 238.39,46.03 L238.39,46.03 Z" id="Shape" fill="#000000" fill-rule="nonzero"></path>
                <path d="M34.93,40.94 L34.93,31.53 L66.64,31.53 C66.95,33.17 67.11,35.11 67.11,37.21 C67.11,44.27 65.18,53 58.96,59.22 C52.91,65.52 45.18,68.88 34.94,68.88 C15.96,68.88 -1.42108547e-14,53.42 -1.42108547e-14,34.44 C-1.42108547e-14,15.46 15.96,0 34.94,0 C45.44,0 52.92,4.12 58.54,9.49 L51.9,16.13 C47.87,12.35 42.41,9.41 34.93,9.41 C21.07,9.41 10.23,20.58 10.23,34.44 C10.23,48.3 21.07,59.47 34.93,59.47 C43.92,59.47 49.04,55.86 52.32,52.58 C54.98,49.92 56.73,46.12 57.42,40.93 L34.93,40.94 Z" id="Path" fill="#000000" fill-rule="nonzero"></path>
            </g>
        </g>
    </g>
</svg>