<?xml version="1.0" encoding="UTF-8"?>
<svg width="90px" height="90px" viewBox="0 0 90 90" version="1.1" xmlns="http://www.w3.org/2000/svg" xmlns:xlink="http://www.w3.org/1999/xlink">
    <title>Group 2</title>
    <g id="Page-1" stroke="none" stroke-width="1" fill="none" fill-rule="evenodd">
        <g id="Modal-Orfium" transform="translate(-420.000000, -191.000000)">
            <g id="Group-2" transform="translate(420.000000, 191.000000)">
                <circle id="Oval" fill="#11A19C" cx="45" cy="45" r="45"></circle>
                <path d="M31,49 L37,49 L37,63.8274815 C36.7757937,65.2758272 35.7767761,66 34.0029473,66 C32.2291185,66 31.2281361,65.2758272 31,63.8274815 L31,49 Z" id="Path-2" fill="#FFFFFF"></path>
                <path d="M68,44 C68,44 68,36 68,36 C68,36 65,36 65,40 C65,44 68,44 68,44 Z" id="Oval" fill="#FFFFFF" transform="translate(66.500000, 40.000000) scale(-1, 1) translate(-66.500000, -40.000000) "></path>
                <path d="M42,30 L42,50 L27.0703678,50 C25.9358761,49.7228233 25.0393529,49.2624959 24.3807981,48.6190178 C23.7222433,47.9755398 23.2619773,47.1101397 23,46.0228176 L23,34.2895653 C23.2336308,33.1021992 23.6938968,32.1655362 24.3807981,31.4795763 C25.0676993,30.7936165 25.9642225,30.3004244 27.0703678,30 L42,30 Z" id="Path-3" fill="#D90F14"></path>
                <rect id="Rectangle" fill="#D90F14" x="60" y="22" width="5" height="36" rx="2.5"></rect>
                <path d="M43,28.6187562 C46.3650436,28.1818428 49.4289819,27.5834678 52.191815,26.8236311 C54.9546481,26.0637944 57.5573764,25.1225841 60,24 L60,54 C56.7591295,52.4617408 54.1564012,51.401745 52.191815,50.8200127 C50.2272288,50.2382804 47.1632905,49.5618887 43,48.7908377 L43,28.6187562 Z" id="Path-4" fill="#FFFFFF"></path>
            </g>
        </g>
    </g>
</svg>