<?xml version="1.0" encoding="UTF-8"?>
<svg width="112px" height="23px" viewBox="0 0 112 23" version="1.1" xmlns="http://www.w3.org/2000/svg" xmlns:xlink="http://www.w3.org/1999/xlink">
    <title>Microsoft_logo</title>
    <defs>
        <filter color-interpolation-filters="auto" id="filter-1">
            <feColorMatrix in="SourceGraphic" type="matrix" values="0 0 0 0 0.000000 0 0 0 0 0.000000 0 0 0 0 0.000000 0 0 0 1.000000 0"></feColorMatrix>
        </filter>
    </defs>
    <g id="Page-1" stroke="none" stroke-width="1" fill="none" fill-rule="evenodd">
        <g id="home2" transform="translate(-452.000000, -721.000000)">
            <g id="Microsoft_logo" transform="translate(452.000000, 721.000000)" filter="url(#filter-1)">
                <g>
                    <path d="M112,10.8126879 L112,8.96768892 L109.553642,8.96768892 L109.553642,6.09893339 L109.471311,6.1227759 L107.173275,6.78124154 L107.12771,6.79419304 L107.12771,8.96768892 L103.501696,8.96768892 L103.501696,7.75672439 C103.501696,7.19304013 103.636191,6.76151995 103.901723,6.47393796 C104.165056,6.18959383 104.54183,6.04506695 105.021674,6.04506695 C105.367338,6.04506695 105.724315,6.12130414 106.084748,6.27201242 L106.174935,6.30968949 L106.174935,4.36637695 L106.132512,4.35195369 C105.796904,4.23892249 105.340314,4.18181818 104.773739,4.18181818 C104.060414,4.18181818 103.411823,4.32722812 102.846506,4.61569317 C102.28056,4.90415823 101.835596,5.31625116 101.524498,5.84019789 C101.213401,6.36355592 101.056281,6.96786077 101.056281,7.63662874 L101.056281,8.96798327 L99.3524721,8.96798327 L99.3524721,10.8129822 L101.056281,10.8129822 L101.056281,18.5856437 L103.500753,18.5856437 L103.500753,10.8129822 L107.127396,10.8129822 L107.127396,15.7527991 C107.127396,17.7870664 108.151818,18.8178875 110.171752,18.8178875 C110.504532,18.8178875 110.853653,18.7810935 111.210315,18.7098602 C111.573576,18.6368609 111.820883,18.5632729 111.966376,18.4855639 L111.999057,18.4676085 L111.999057,16.6055371 L111.899757,16.6670567 C111.76652,16.7497696 111.602172,16.8180593 111.408286,16.8680992 C111.213772,16.9193164 111.050995,16.9452194 110.9253,16.9452194 C110.452054,16.9452194 110.101677,16.8257125 109.884223,16.5899364 C109.664569,16.3518056 109.5527,15.9355917 109.5527,15.353952 L109.5527,10.8132766 L111.999686,10.8132766 L111.999686,10.8126879 L112,10.8126879 Z M93.8934964,16.9446307 C93.0060829,16.9446307 92.3062706,16.6691172 91.8129139,16.1260375 C91.3170433,15.5803088 91.0653372,14.8026305 91.0653372,13.8139018 C91.0653372,12.7939718 91.3170433,11.9962776 91.8135424,11.4405409 C92.3068991,10.888925 92.9997981,10.6089962 93.8740135,10.6089962 C94.7215185,10.6089962 95.3968201,10.8762679 95.8798068,11.4043356 C96.365936,11.934758 96.6126143,12.7268595 96.6126143,13.7585636 C96.6126143,14.8032192 96.3807053,15.6050343 95.9234862,16.1422269 C95.4690953,16.6744155 94.7859377,16.9446307 93.8934964,16.9446307 M94.0028519,8.73573946 C92.309413,8.73573946 90.9647804,9.20052142 90.005406,10.1168395 C89.0472885,11.0337463 88.5611593,12.3024038 88.5611593,13.8880786 C88.5611593,15.3936895 89.0356616,16.6046541 89.9708396,17.4877103 C90.9063318,18.3701779 92.1790034,18.8178875 93.7539738,18.8178875 C95.3958774,18.8178875 96.7134853,18.3466298 97.6722313,17.4179489 C98.6309773,16.489268 99.1158494,15.2323846 99.1158494,13.6840926 C99.1158494,12.1543447 98.6605158,10.9342553 97.7611612,10.0573804 C96.8618066,9.18050548 95.5966767,8.73573946 94.0028519,8.73573946 M84.6193339,8.73573946 C83.4673304,8.73573946 82.5148692,9.01154738 81.7867753,9.5558044 C81.0545964,10.103005 80.6831648,10.8209297 80.6831648,11.6895628 C80.6831648,12.1413932 80.7629817,12.5420064 80.9207302,12.8822774 C81.080364,13.2237259 81.3251569,13.5242594 81.6516522,13.7762248 C81.9756335,14.0267184 82.475275,14.2883974 83.1376927,14.5550804 C83.6942116,14.7696631 84.109951,14.9512783 84.3739125,15.0943334 C84.6315893,15.2347394 84.8151054,15.3754397 84.9181761,15.5129021 C85.0181043,15.647421 85.0690112,15.8308024 85.0690112,16.0580422 C85.0690112,16.7041451 84.552715,17.0191018 83.4899557,17.0191018 C83.0958988,17.0191018 82.6452788,16.9416872 82.1531791,16.7906846 C81.6604509,16.6379158 81.199461,16.4195066 80.7846643,16.1395777 L80.683479,16.0721711 L80.683479,18.276574 L80.7202451,18.293352 C81.0665375,18.4431772 81.5027025,18.5694543 82.0164847,18.6680622 C82.5296385,18.7675533 82.9959705,18.8181818 83.4010258,18.8181818 C84.6507579,18.8181818 85.6572683,18.5409021 86.3913328,17.9931129 C87.1310535,17.4423801 87.5053132,16.7079716 87.5053132,15.8084316 C87.5053132,15.160857 87.3038854,14.6045316 86.906372,14.155939 C86.5116866,13.7111729 85.8260152,13.3034953 84.8704116,12.9423253 C84.1093225,12.6559207 83.6213079,12.4186729 83.4208229,12.2364689 C83.2275653,12.0598577 83.1279513,11.8111302 83.1279513,11.4955847 C83.1279513,11.2156559 83.2501906,10.9919483 83.4993829,10.810333 C83.751089,10.6278347 84.100838,10.5351138 84.5404597,10.5351138 C84.9480288,10.5351138 85.364711,10.595456 85.7788792,10.7131968 C86.1930474,10.831232 86.5572514,10.9892991 86.8601787,11.1829828 L86.960107,11.2468572 L86.960107,9.1551912 L86.922084,9.13959054 C86.6414677,9.02714804 86.2722358,8.9308949 85.8235012,8.85259725 C85.3766521,8.77488829 84.9715968,8.73573946 84.6193339,8.73573946 M74.3094367,16.9446307 C73.4220232,16.9446307 72.7215824,16.6691172 72.2294827,16.1260375 C71.7329837,15.5803088 71.481906,14.8026305 71.481906,13.8139018 C71.481906,12.7939718 71.7329837,11.9962776 72.2294827,11.4405409 C72.7222109,10.888925 73.4151099,10.6089962 74.2899538,10.6089962 C75.1374588,10.6089962 75.8121319,10.8762679 76.2957472,11.4043356 C76.7812478,11.934758 77.0279261,12.7268595 77.0279261,13.7585636 C77.0279261,14.8032192 76.7966456,15.6050343 76.3394265,16.1422269 C75.8844071,16.6744155 75.201878,16.9446307 74.3094367,16.9446307 M74.4181637,8.73573946 C72.7240963,8.73573946 71.3794638,9.20052142 70.4213463,10.1168395 C69.4626003,11.0337463 68.9764712,12.3024038 68.9764712,13.8880786 C68.9764712,15.3942782 69.4516019,16.6046541 70.3861514,17.4877103 C71.3216436,18.3704723 72.5949437,18.8178875 74.1699142,18.8178875 C75.8111892,18.8178875 77.1294256,18.3466298 78.0881716,17.4179489 C79.0456606,16.489268 79.5317897,15.2323846 79.5317897,13.6840926 C79.5317897,12.1543447 79.0764561,10.9342553 78.176473,10.0573804 C77.2777469,9.18050548 76.0132455,8.73573946 74.4181637,8.73573946 M65.2652978,10.6331331 L65.2652978,8.96739456 L62.8494214,8.96739456 L62.8494214,18.585055 L65.2652978,18.585055 L65.2652978,13.665254 C65.2652978,12.828411 65.4679826,12.1410989 65.8673815,11.6224505 C66.2620668,11.1093948 66.7881044,10.8494819 67.4300966,10.8494819 C67.6472363,10.8494819 67.891715,10.883038 68.156305,10.9495616 C68.4183811,11.0157908 68.608182,11.0873184 68.7197372,11.1626725 L68.8209224,11.2315509 L68.8209224,8.95061649 L68.7816424,8.93501583 C68.5563324,8.8455328 68.2383216,8.80020257 67.8357803,8.80020257 C67.2286688,8.80020257 66.6856622,8.98270087 66.2202729,9.34239913 C65.8114468,9.65853329 65.517004,10.0921139 65.2910655,10.6325444 L65.2652978,10.6325444 L65.2652978,10.6331331 L65.2652978,10.6331331 Z M58.5245375,8.73573946 C57.4168418,8.73573946 56.4279288,8.95826965 55.5876513,9.39714862 C54.7448599,9.8366163 54.094069,10.4644693 53.6506765,11.2630466 C53.2094837,12.0598577 52.9854306,12.9900103 52.9854306,14.0270127 C52.9854306,14.935972 53.2022561,15.7695772 53.6318221,16.5048687 C54.0617023,17.2407489 54.6697565,17.816796 55.4390158,18.2159374 C56.2079609,18.6147845 57.0960029,18.8172988 58.0792596,18.8172988 C59.2274922,18.8172988 60.206978,18.6027161 60.9925778,18.177966 L61.0246302,18.1611879 L61.0246302,16.0886548 L60.923445,16.1572389 C60.5674112,16.4003737 60.1698977,16.5940574 59.7419029,16.7338746 C59.3148509,16.8733975 58.9248792,16.9437477 58.5836146,16.9437477 C57.635867,16.9437477 56.8754065,16.666468 56.3239154,16.1186787 C55.7699105,15.5697121 55.4892942,14.8002757 55.4892942,13.8312686 C55.4892942,12.8560801 55.7821658,12.0663334 56.358796,11.4835163 C56.9338551,10.9024652 57.6962011,10.6078188 58.6241516,10.6078188 C59.4176073,10.6078188 60.1915802,10.8594898 60.9231307,11.3566505 L61.024316,11.4255289 L61.024316,9.24173072 L60.991635,9.22436394 C60.7160466,9.07983706 60.3411584,8.96062447 59.8738837,8.87025837 C59.4106941,8.78136404 58.9559889,8.73573946 58.5245375,8.73573946 M51.3215303,8.96768892 L48.9059681,8.96768892 L48.9059681,18.5856437 L51.3215303,18.5856437 L51.3215303,8.96768892 Z M50.138417,4.87030774 C49.7409035,4.87030774 49.3946112,4.99717349 49.1099098,5.24825583 C48.8236372,5.50022122 48.6784584,5.81753278 48.6784584,6.1916543 C48.6784584,6.55988877 48.822066,6.87131329 49.1045677,7.11680293 C49.3861267,7.36140953 49.7339903,7.48503741 50.138417,7.48503741 C50.543158,7.48503741 50.8916501,7.36140953 51.1769799,7.11709729 C51.463881,6.87160764 51.6090598,6.56018312 51.6090598,6.1916543 C51.6090598,5.83048427 51.4676518,5.51670494 51.188921,5.25855815 C50.9101902,5.00100007 50.5566703,4.87030774 50.138417,4.87030774 M44.1122383,8.25800601 L44.1122383,18.5856437 L46.5771361,18.5856437 L46.5771361,5.16465983 L43.1660619,5.16465983 L38.8298654,15.1331879 L34.6212502,5.16465983 L31.0709677,5.16465983 L31.0709677,18.5856437 L33.3872301,18.5856437 L33.3872301,8.2568286 L33.4667328,8.2568286 L37.9103994,18.585055 L39.658516,18.585055 L44.0327356,8.25771166 L44.1122383,8.25800601 L44.1122383,8.25800601 Z" id="microsoft_1_" fill="#777777" fill-rule="nonzero"></path>
                    <polygon id="red" fill="#F35325" fill-rule="nonzero" points="10.8387097 10.4545455 0 10.4545455 0 0 10.8384099 0 10.8384099 10.4545455"></polygon>
                    <polygon id="green" fill="#81BC06" fill-rule="nonzero" points="23.8451613 10.4545455 13.0064516 10.4545455 13.0064516 0 23.8451613 0"></polygon>
                    <polygon id="blue" fill="#05A6F0" fill-rule="nonzero" points="10.8387097 23 0 23 0 12.5454545 10.8384099 12.5454545 10.8384099 23"></polygon>
                    <polygon id="yellow" fill="#FFBA08" fill-rule="nonzero" points="23.8451613 23 13.0064516 23 13.0064516 12.5454545 23.8451613 12.5454545"></polygon>
                </g>
            </g>
        </g>
    </g>
</svg>