<?xml version="1.0" encoding="UTF-8"?>
<svg width="65px" height="19px" viewBox="0 0 65 19" version="1.1" xmlns="http://www.w3.org/2000/svg" xmlns:xlink="http://www.w3.org/1999/xlink">
    <title>Shape</title>
    <g id="Page-1" stroke="none" stroke-width="1" fill="none" fill-rule="evenodd">
        <g id="home2" transform="translate(-616.000000, -781.000000)" fill="#000000" fill-rule="nonzero">
            <g id="Group-11" transform="translate(610.261628, 722.052326)">
                <g id="nasa-3-logo-svg-vector" transform="translate(4.738372, 35.947674)">
                    <path d="M35.4066667,41.1683588 L44.1677919,41.1683588 C45.4769098,41.1683588 46.5512329,40.6268821 47.4238645,39.5435846 C48.2630514,38.4946884 48.6995378,37.2428245 48.6995378,35.8220501 C48.6995378,32.945756 45.0407647,30.9153903 43.6302891,30.9153903 L38.8303036,30.9153903 C38.4610477,30.9153903 38.1583398,30.7461358 37.9238862,30.4757414 C37.6887501,30.1709458 37.5546303,29.8327808 37.5546303,29.4265013 C37.5546303,28.9527951 37.6887501,28.5468596 37.9238862,28.2083506 C38.192467,27.8701857 38.527937,27.6672179 38.9309788,27.6672179 L47.9272401,27.6672179 L47.9272401,24.0461353 L38.7627319,24.0461353 C37.1178026,24.0461353 35.841788,24.5538987 34.9353706,25.5350243 C34.1303108,26.4487233 33.7269277,27.6668739 33.7269277,29.1220496 C33.7269277,30.543168 34.1303108,31.795376 34.9353706,32.8098708 C35.841788,33.9265376 36.9164524,34.5024156 38.2255703,34.5024156 L43.7647501,34.5024156 C44.0998788,34.5024156 44.3688009,34.6038995 44.5698099,34.8739498 C44.804946,35.1446882 44.9056211,35.4831971 44.9056211,35.8557634 C44.9056211,36.2957563 44.7377155,36.7016918 44.4691347,37.0402008 C44.1671093,37.3446524 43.8312981,37.5139069 43.3954942,37.5139069 L34.5333526,37.5139069 L34.3992328,37.2768818 L31.0759297,26.5164939 L30.9080241,26.1779849 C30.1022818,24.5198414 28.7597192,23.7079703 26.9134397,23.7079703 C25.9063471,23.7079703 24.9999297,23.9446514 24.1941874,24.4524148 C23.3550005,24.9598343 22.8178389,25.7042788 22.5158135,26.6520351 L18.0509568,41.1343015 L22.1127717,41.1687028 L26.2080313,28.2764652 C26.3087064,27.8701857 26.5438425,27.6672179 26.8458679,27.6672179 C27.0137736,27.6672179 27.1478933,27.7346445 27.2485684,27.8364724 C27.3492436,27.9716696 27.4164741,28.1072108 27.4499187,28.2764652 L31.5786228,41.1687028 L35.4066667,41.1687028 L35.4066667,41.1683588 Z M5.19457212,29.3250174 L5.19457212,41.1343015 L1.43478261,41.1343015 L1.43478261,28.0390962 C1.43478261,26.3472394 1.8378244,25.162802 2.71045595,24.4524148 C3.38173724,23.9446514 4.38882981,23.673913 5.7986229,23.673913 C6.93983522,23.673913 7.91348317,24.012422 8.78611472,24.6553826 C9.65874627,25.2983432 10.2293524,26.1779849 10.5317191,27.2609384 L12.9820494,35.9572473 L13.3850912,37.1416846 C13.4185358,37.3783657 13.5529968,37.5476202 13.6871165,37.6824733 C13.8550222,37.8183585 14.0225866,37.8861291 14.2242781,37.8183585 C14.5600894,37.7846453 14.727995,37.5813335 14.727995,37.2768818 L14.727995,24.0801926 L18.5884597,24.0801926 L18.5884597,37.1076273 C18.5884597,38.562803 18.2529896,39.6461005 17.5479225,40.4242583 C16.8766412,41.2024161 15.8695486,41.6086957 14.5266448,41.6086957 C13.3516465,41.6086957 12.3779986,41.3716706 11.6060422,40.965735 C10.6661801,40.4920289 10.0617881,39.7475844 9.79320729,38.7657708 L6.97362111,28.8513113 L6.77227085,28.2083506 C6.70504034,27.9716696 6.57092059,27.8024151 6.40301495,27.6331606 C6.23510931,27.4976194 6.03375905,27.4639061 5.83240879,27.4976194 C5.63105853,27.5316767 5.49693878,27.6331606 5.36247776,27.8361284 C5.25210903,28.0197059 5.19401725,28.2303735 5.19457212,28.4450317 L5.19457212,29.3250174 L5.19457212,29.3250174 Z M65.2826087,41.1683588 L60.9187684,26.5164939 L60.7508628,26.1779849 C59.9451205,24.5198414 58.6025579,23.7079703 56.7562784,23.7079703 C55.7491858,23.7079703 54.8427684,23.9446514 54.0373673,24.4524148 C53.1974979,24.9598343 52.6610189,25.7042788 52.3583109,26.6520351 L47.8937955,41.1343015 L51.9556104,41.1687028 L56.0508699,28.2764652 C56.1515451,27.8701857 56.3866812,27.6672179 56.6887066,27.6672179 C56.8566122,27.6672179 56.990732,27.7346445 57.0914071,27.8364724 C57.1927648,27.9716696 57.2593128,28.1072108 57.2934399,28.2764652 L61.4221441,41.1687028 L65.2826087,41.1687028 L65.2826087,41.1683588 L65.2826087,41.1683588 Z" id="Shape"></path>
                </g>
            </g>
        </g>
    </g>
</svg>