<?xml version="1.0" encoding="UTF-8"?>
<svg width="65px" height="19px" viewBox="0 0 65 19" version="1.1" xmlns="http://www.w3.org/2000/svg" xmlns:xlink="http://www.w3.org/1999/xlink">
    <title>nasa</title>
    <defs>
        <filter color-interpolation-filters="auto" id="filter-1">
            <feColorMatrix in="SourceGraphic" type="matrix" values="0 0 0 0 0.733333 0 0 0 0 0.733333 0 0 0 0 0.733333 0 0 0 1.000000 0"></feColorMatrix>
        </filter>
    </defs>
    <g id="Page-1" stroke="none" stroke-width="1" fill="none" fill-rule="evenodd">
        <g filter="url(#filter-1)" id="nasa">
            <g transform="translate(0.434783, 0.673913)">
                <path d="M33.9718841,17.4944458 L42.7330093,17.4944458 C44.0421272,17.4944458 45.1164503,16.9529691 45.9890819,15.8696716 C46.8282688,14.8207754 47.2647552,13.5689115 47.2647552,12.1481371 C47.2647552,9.271843 43.6059821,7.2414773 42.1955065,7.2414773 L37.395521,7.2414773 C37.0262651,7.2414773 36.7235572,7.0722228 36.4891036,6.8018284 C36.2539675,6.4970328 36.1198477,6.1588678 36.1198477,5.7525883 C36.1198477,5.2788821 36.2539675,4.8729466 36.4891036,4.5344376 C36.7576844,4.1962727 37.0931544,3.9933049 37.4961962,3.9933049 L46.4924575,3.9933049 L46.4924575,0.3722223 L37.3279493,0.3722223 C35.68302,0.3722223 34.4070054,0.8799857 33.500588,1.8611113 C32.6955282,2.7748103 32.2921451,3.9929609 32.2921451,5.4481366 C32.2921451,6.869255 32.6955282,8.121463 33.500588,9.1359578 C34.4070054,10.2526246 35.4816698,10.8285026 36.7907877,10.8285026 L42.3299675,10.8285026 C42.6650962,10.8285026 42.9340183,10.9299865 43.1350273,11.2000368 C43.3701634,11.4707752 43.4708385,11.8092841 43.4708385,12.1818504 C43.4708385,12.6218433 43.3029329,13.0277788 43.0343521,13.3662878 C42.7323267,13.6707394 42.3965155,13.8399939 41.9607116,13.8399939 L33.09857,13.8399939 L32.9644502,13.6029688 L29.6411471,2.8425809 L29.4732415,2.5040719 C28.6674992,0.8459284 27.3249366,0.0340573 25.4786571,0.0340573 C24.4715645,0.0340573 23.5651471,0.2707384 22.7594048,0.7785018 C21.9202179,1.2859213 21.3830563,2.0303658 21.0810309,2.9781221 L16.6161742,17.4603885 L20.6779891,17.4947898 L24.7732487,4.6025522 C24.8739238,4.1962727 25.1090599,3.9933049 25.4110853,3.9933049 C25.578991,3.9933049 25.7131107,4.0607315 25.8137858,4.1625594 C25.914461,4.2977566 25.9816915,4.4332978 26.0151361,4.6025522 L30.1438402,17.4947898 L33.9718841,17.4947898 L33.9718841,17.4944458 Z M3.75978951,5.6511044 L3.75978951,17.4603885 L0,17.4603885 L0,4.3651832 C0,2.6733264 0.40304179,1.488889 1.27567334,0.7785018 C1.94695463,0.2707384 2.9540472,0 4.36384029,0 C5.50505261,0 6.47870056,0.338509 7.35133211,0.9814696 C8.22396366,1.6244302 8.79456979,2.5040719 9.09693649,3.5870254 L11.5472668,12.2833343 L11.9503086,13.4677716 C11.9837532,13.7044527 12.1182142,13.8737072 12.2523339,14.0085603 C12.4202396,14.1444455 12.587804,14.2122161 12.7894955,14.1444455 C13.1253068,14.1107323 13.2932124,13.9074205 13.2932124,13.6029688 L13.2932124,0.4062796 L17.1536771,0.4062796 L17.1536771,13.4337143 C17.1536771,14.88889 16.818207,15.9721875 16.1131399,16.7503453 C15.4418586,17.5285031 14.434766,17.9347827 13.0918622,17.9347827 C11.9168639,17.9347827 10.943216,17.6977576 10.1712596,17.291822 C9.23139749,16.8181159 8.62700549,16.0736714 8.35842468,15.0918578 L5.5388385,5.1773983 L5.33748824,4.5344376 C5.27025773,4.2977566 5.13613798,4.1285021 4.96823234,3.9592476 C4.8003267,3.8237064 4.59897644,3.7899931 4.39762618,3.8237064 C4.19627592,3.8577637 4.06215617,3.9592476 3.92769515,4.1622154 C3.81732642,4.3457929 3.75923464,4.5564605 3.75978951,4.7711187 L3.75978951,5.6511044 L3.75978951,5.6511044 Z M63.8478261,17.4944458 L59.4839858,2.8425809 L59.3160802,2.5040719 C58.5103379,0.8459284 57.1677753,0.0340573 55.3214958,0.0340573 C54.3144032,0.0340573 53.4079858,0.2707384 52.6025847,0.7785018 C51.7627153,1.2859213 51.2262363,2.0303658 50.9235283,2.9781221 L46.4590129,17.4603885 L50.5208278,17.4947898 L54.6160873,4.6025522 C54.7167625,4.1962727 54.9518986,3.9933049 55.253924,3.9933049 C55.4218296,3.9933049 55.5559494,4.0607315 55.6566245,4.1625594 C55.7579822,4.2977566 55.8245302,4.4332978 55.8586573,4.6025522 L59.9873615,17.4947898 L63.8478261,17.4947898 L63.8478261,17.4944458 L63.8478261,17.4944458 Z" id="Shape" fill="#000000" fill-rule="nonzero"></path>
            </g>
        </g>
    </g>
</svg>