<?xml version="1.0" encoding="UTF-8"?>
<svg width="2500px" height="680px" viewBox="0 0 2500 680" version="1.1" xmlns="http://www.w3.org/2000/svg" xmlns:xlink="http://www.w3.org/1999/xlink">
    <title>netflix</title>
    <defs>
        <filter color-interpolation-filters="auto" id="filter-1">
            <feColorMatrix in="SourceGraphic" type="matrix" values="0 0 0 0 0.733333 0 0 0 0 0.733333 0 0 0 0 0.733333 0 0 0 1.000000 0"></feColorMatrix>
        </filter>
    </defs>
    <g id="Page-1" stroke="none" stroke-width="1" fill="none" fill-rule="evenodd">
        <g filter="url(#filter-1)" id="netflix">
            <g transform="translate(0.000000, 0.975000)">
                <path d="M2134.08333,635.125 C2168.9,638.5 2203.7,642.125 2238.41667,645.875 L2315.06667,456.608333 L2387.925,663.333333 C2425.30833,668.016667 2462.675,672.933333 2499.925,678.066667 L2372.19167,315.558333 L2499.96667,0.025 L2391.75,0.025 L2390.625,1.575 L2321.6,172.033333 L2261,0.05 L2154.15,0.05 L2264.45833,313.091667 L2134.09167,635.125 L2134.08333,635.125 Z M2053.275,627.708333 L2053.275,0.025 L1946.46667,0.025 L1946.46667,618.9 C1982.09167,621.65 2017.73333,624.6 2053.275,627.7 M1250.94167,592.608333 C1279.775,592.608333 1308.575,592.825 1337.325,593.058333 L1337.325,362.458333 L1465.63333,362.458333 L1465.63333,264.258333 L1337.33333,264.258333 L1337.33333,98.3416667 L1485.10833,98.3416667 L1485.10833,0.025 L1230.10833,0.025 L1230.10833,592.691667 C1237.03333,592.691667 1243.99167,592.583333 1250.94167,592.608333 M919.325,598.608333 C954.908333,597.341667 990.525,596.275 1026.19167,595.408333 L1026.19167,98.3583333 L1126.025,98.3583333 L1126.025,0.05 L819.491667,0.05 L819.491667,98.3583333 L919.341667,98.3583333 L919.341667,598.608333 L919.325,598.608333 Z M102.458333,664.791667 L102.458333,290.833333 L228.925,649.691667 C267.816667,645.325 306.766667,641.216667 345.825,637.333333 L345.825,0.03333333 L243.341667,0.03333333 L243.341667,387.391667 L106.875,0.03333333 L0,0.03333333 L0,678.233333 L0.641666667,678.233333 C34.5,673.55 68.475,669.1 102.458333,664.791667 M716.5,98.3333333 L716.5,0.03333333 L461.475,0.03333333 L461.475,626.708333 C546.324224,619.38388 631.271352,613.241617 716.291667,608.283333 L716.291667,509.891667 C666.991667,512.758333 617.791667,516.058333 568.708333,519.733333 L568.708333,362.5 L697.016667,362.5 L697.016667,264.241667 L568.708333,264.241667 L568.708333,98.3333333 L716.5,98.3333333 Z M1696.78333,505.191667 L1696.78333,0 L1589.50833,0 L1589.50833,598.966667 C1674.84167,602.1 1759.84167,606.466667 1844.55833,611.966667 L1844.55833,513.516667 C1795.39167,510.341667 1746.14167,507.583333 1696.78333,505.183333" id="Shape" fill="#000000" fill-rule="nonzero"></path>
            </g>
        </g>
    </g>
</svg>