<?xml version="1.0" encoding="UTF-8"?>
<svg width="2500px" height="680px" viewBox="0 0 2500 680" version="1.1" xmlns="http://www.w3.org/2000/svg" xmlns:xlink="http://www.w3.org/1999/xlink">
    <title>Shape</title>
    <g id="Page-1" stroke="none" stroke-width="1" fill="none" fill-rule="evenodd">
        <g id="netflix-2-logo-svg-vector" fill="#000000" fill-rule="nonzero">
            <path d="M2134.08333,636.1 C2168.9,639.475 2203.7,643.1 2238.41667,646.85 L2315.06667,457.583333 L2387.925,664.308333 C2425.30833,668.991667 2462.675,673.908333 2499.925,679.041667 L2372.19167,316.533333 L2499.96667,1 L2391.75,1 L2390.625,2.55 L2321.6,173.008333 L2261,1.025 L2154.15,1.025 L2264.45833,314.066667 L2134.09167,636.1 L2134.08333,636.1 Z M2053.275,628.683333 L2053.275,1 L1946.46667,1 L1946.46667,619.875 C1982.09167,622.625 2017.73333,625.575 2053.275,628.675 M1250.94167,593.583333 C1279.775,593.583333 1308.575,593.8 1337.325,594.033333 L1337.325,363.433333 L1465.63333,363.433333 L1465.63333,265.233333 L1337.33333,265.233333 L1337.33333,99.3166667 L1485.10833,99.3166667 L1485.10833,1 L1230.10833,1 L1230.10833,593.666667 C1237.03333,593.666667 1243.99167,593.558333 1250.94167,593.583333 M919.325,599.583333 C954.908333,598.316667 990.525,597.25 1026.19167,596.383333 L1026.19167,99.3333333 L1126.025,99.3333333 L1126.025,1.025 L819.491667,1.025 L819.491667,99.3333333 L919.341667,99.3333333 L919.341667,599.583333 L919.325,599.583333 Z M102.458333,665.766667 L102.458333,291.808333 L228.925,650.666667 C267.816667,646.3 306.766667,642.191667 345.825,638.308333 L345.825,1.00833333 L243.341667,1.00833333 L243.341667,388.366667 L106.875,1.00833333 L0,1.00833333 L0,679.208333 L0.641666667,679.208333 C34.5,674.525 68.475,670.075 102.458333,665.766667 M716.5,99.3083333 L716.5,1.00833333 L461.475,1.00833333 L461.475,627.683333 C546.324224,620.35888 631.271352,614.216617 716.291667,609.258333 L716.291667,510.866667 C666.991667,513.733333 617.791667,517.033333 568.708333,520.708333 L568.708333,363.475 L697.016667,363.475 L697.016667,265.216667 L568.708333,265.216667 L568.708333,99.3083333 L716.5,99.3083333 Z M1696.78333,506.166667 L1696.78333,0.975 L1589.50833,0.975 L1589.50833,599.941667 C1674.84167,603.075 1759.84167,607.441667 1844.55833,612.941667 L1844.55833,514.491667 C1795.39167,511.316667 1746.14167,508.558333 1696.78333,506.158333" id="Shape"></path>
        </g>
    </g>
</svg>