<?xml version="1.0" encoding="UTF-8"?>
<svg width="127px" height="19px" viewBox="0 0 127 19" version="1.1" xmlns="http://www.w3.org/2000/svg" xmlns:xlink="http://www.w3.org/1999/xlink">
    <title>Shape</title>
    <g id="Page-1" stroke="none" stroke-width="1" fill="none" fill-rule="evenodd">
        <g id="home2" transform="translate(-897.000000, -725.000000)" fill="#000000" fill-rule="nonzero">
            <g id="samsung-1" transform="translate(885.459302, 659.000000)">
                <path d="M81.5934267,74.8485837 C81.5934267,74.8485837 80.3676096,74.0977555 79.6096316,73.8072379 C79.6096316,73.8072379 77.2633595,72.7300643 76.7978792,72.2175695 C76.7978792,72.2175695 75.8834307,71.3639308 76.4188902,70.3724325 C76.4188902,70.3724325 76.6429812,69.723636 77.6093245,69.723636 C77.6093245,69.723636 78.8673793,69.7921763 78.8673793,70.816387 L78.8673793,72.2611861 L83.375933,72.2611861 L83.3680701,70.1333202 C83.3680701,70.1333202 83.7148215,66.6486673 78.0575066,66.4952305 C78.0575066,66.4952305 73.6079242,66.2054918 72.3317849,68.5794797 C72.3317849,68.5794797 71.8309219,69.1091096 71.8309219,70.9534676 L71.8309219,72.2861098 C71.8309219,72.2861098 71.7798134,73.8235941 72.5723879,74.8143135 C72.5723879,74.8143135 73.0205699,75.463889 74.1245129,76.180447 C74.1245129,76.180447 76.3662092,77.3760085 77.7115415,78.060633 C77.7115415,78.060633 79.0694543,78.8285963 78.8909678,80.0506393 C78.8909678,80.0506393 78.7801017,81.3053947 77.4685797,81.2539895 C77.4685797,81.2539895 76.2694962,81.2010265 76.2694962,79.9704159 L76.2694962,78.5263957 L71.4652997,78.5263957 L71.4652997,80.6238857 C71.4652997,80.6238857 71.3308451,84.635053 77.5039625,84.635053 C77.5039625,84.635053 83.4026666,84.7534408 83.6778661,80.5187386 L83.6778661,78.8106823 C83.6770798,78.8106823 83.8862314,76.215496 81.5934267,74.8485837 L81.5934267,74.8485837 Z M58.5112673,66.9944845 L57.0016016,76.3658174 L56.64856,76.3658174 L55.2065147,67.0786022 L47.6754845,67.0786022 L47.2980681,84.0493447 L51.7570859,84.0493447 L51.8105532,71.262678 L52.1612359,71.262678 L54.5248063,84.0470081 L59.2157779,84.0470081 L61.5502557,71.2673512 L61.860838,71.2673512 L61.9685589,84.0493447 L66.4511653,84.0493447 L65.9683867,66.9944845 L58.5112673,66.9944845 L58.5112673,66.9944845 Z M31.9678847,67.0653614 L29.0012344,84.029873 L33.8014995,84.029873 L35.5588447,70.8763598 L35.9535594,70.8763598 L37.7101184,84.029873 L42.5095972,84.029873 L39.5437331,67.0653614 L31.9678847,67.0653614 L31.9678847,67.0653614 Z M132.692465,74.6149235 L132.692465,77.1174245 L133.923786,77.1174245 L133.923786,79.8037383 C133.923786,81.1169088 132.790751,81.1410537 132.790751,81.1410537 C131.413181,81.1410537 131.465076,79.893308 131.465076,79.893308 L131.465076,70.6014196 C131.465076,69.6441915 132.687748,69.5927862 132.687748,69.5927862 C133.860884,69.5927862 133.868746,70.7346059 133.868746,70.7346059 L133.868746,72.1474714 L138.388308,72.1474714 C138.536129,69.3895018 137.981013,68.7220124 137.981013,68.7220124 C136.859772,66.2280789 132.618554,66.3643807 132.618554,66.3643807 C126.101045,66.3643807 126.824426,71.3179776 126.824426,71.3179776 L126.824426,80.3022135 C126.964385,84.9481577 133.386754,84.476164 133.495261,84.4722697 C136.351832,84.159165 137.214386,83.2595731 137.214386,83.2595731 C138.008533,82.6754225 138.212967,81.8661793 138.212967,81.8661793 C138.440203,81.3949645 138.496815,79.893308 138.496815,79.893308 L138.496815,74.6149235 L132.692465,74.6149235 L132.692465,74.6149235 Z M117.711392,77.3760085 L117.514821,77.3760085 L112.928425,66.9991577 L107.440948,66.9991577 L107.440948,84.0509024 L111.907042,84.0509024 L111.639705,73.6756093 L111.839422,73.6756093 L116.590937,84.0509024 L121.911722,84.0509024 L121.911722,66.9976 L117.389016,66.9976 L117.711392,77.3760085 L117.711392,77.3760085 Z M96.539117,79.8021806 C96.539117,79.8021806 96.6035923,81.2018053 95.2936428,81.2018053 C95.2936428,81.2018053 93.9160729,81.2750189 93.9160729,79.8372296 L93.9019198,67.009283 L89.0033691,67.009283 L89.0033691,79.735198 C89.0033691,79.735198 88.5009335,84.5517738 95.3628358,84.5517738 C95.3628358,84.5517738 101.326015,84.6218122 101.326015,79.9563963 L101.326015,67.0100618 L96.539117,67.0100618 L96.539117,79.8021806 L96.539117,79.8021806 Z M22.6291871,74.8485837 C22.6291871,74.8485837 21.4049426,74.0977555 20.6461783,73.8080168 C20.6461783,73.8080168 18.3014788,72.731622 17.8359985,72.2183484 C17.8359985,72.2183484 16.92155,71.3631519 17.4577958,70.3739903 C17.4577958,70.3739903 17.6811006,69.7251937 18.6466576,69.7251937 C18.6466576,69.7251937 19.9054986,69.7929552 19.9054986,70.8171658 L19.9054986,72.2619649 L24.4156249,72.2619649 L24.4069757,70.1333202 C24.4069757,70.1333202 24.7513682,66.6486673 19.0964121,66.4960093 C19.0964121,66.4960093 18.6702461,66.468749 18.0451501,66.4999037 C18.0451501,66.4999037 14.6193098,66.6821586 13.394279,68.5436518 C13.3872025,68.5576714 13.3769808,68.5677967 13.3699042,68.5802586 C13.3699042,68.5802586 12.8698274,69.1091096 12.8698274,70.9542465 L12.8698274,72.2868887 C12.8698274,72.2868887 12.8179327,73.824373 13.6112935,74.8150924 C13.6112935,74.8150924 14.0594755,75.4646678 15.1634185,76.1812259 C15.1634185,76.1812259 17.4043285,77.3767874 18.7496608,78.0614118 C18.7496608,78.0614118 20.1091462,78.8278174 19.9290871,80.0514181 C19.9290871,80.0514181 19.818221,81.3061736 18.5074853,81.2547683 C18.5074853,81.2547683 17.3084018,81.2018053 17.3084018,79.9711948 L17.3084018,78.5263957 L12.503419,78.5263957 L12.503419,80.6254434 C12.503419,80.6254434 12.3689644,84.6366107 18.5420818,84.6366107 C18.5420818,84.6366107 24.4392134,84.7549986 24.7167717,80.5202963 L24.7167717,78.8137978 C24.7167717,78.8122401 24.9227782,76.215496 22.6291871,74.8485837 L22.6291871,74.8485837 Z" id="Shape"></path>
            </g>
        </g>
    </g>
</svg>