<?xml version="1.0" encoding="UTF-8"?>
<svg width="123px" height="20px" viewBox="0 0 123 20" version="1.1" xmlns="http://www.w3.org/2000/svg" xmlns:xlink="http://www.w3.org/1999/xlink">
    <title>toyota</title>
    <defs>
        <filter color-interpolation-filters="auto" id="filter-1">
            <feColorMatrix in="SourceGraphic" type="matrix" values="0 0 0 0 0.733333 0 0 0 0 0.733333 0 0 0 0 0.733333 0 0 0 1.000000 0"></feColorMatrix>
        </filter>
    </defs>
    <g id="Page-1" stroke="none" stroke-width="1" fill="none" fill-rule="evenodd">
        <g filter="url(#filter-1)" id="toyota">
            <g>
                <path d="M15.5245946,0 C6.94783784,0 0,4.47368421 0,10 C0,15.5263158 6.94783784,20 15.5245946,20 C24.1013514,20 31.0491892,15.5263158 31.0491892,10 C31.0491892,4.47368421 24.1013514,0 15.5245946,0 Z M15.5245946,1.18421053 C20.5443243,1.18421053 24.6,2.63157895 24.6,4.40789474 C24.6,5.72368421 22.3394595,6.875 19.1148649,7.36842105 L19.1148649,7.36842105 C18.582973,3.91447368 17.1867568,1.41447368 15.5245946,1.41447368 C13.8624324,1.41447368 12.4662162,3.91447368 11.9343243,7.36842105 L11.9343243,7.36842105 C8.70972973,6.875 6.44918919,5.72368421 6.44918919,4.40789474 C6.44918919,2.63157895 10.5048649,1.18421053 15.5245946,1.18421053 Z M17.6521622,7.56578947 C16.9540541,7.63157895 16.2559459,7.66447368 15.4913514,7.66447368 C14.7267568,7.66447368 14.0286486,7.63157895 13.3305405,7.56578947 C13.662973,5.32894737 14.4940541,3.78289474 15.4913514,3.78289474 C16.4886486,3.78289474 17.3197297,5.32894737 17.6521622,7.56578947 Z M14.4940541,18.9802632 C7.54621622,18.6513158 2.06108108,14.5723684 2.06108108,9.63815789 C2.06108108,7.96052632 2.6927027,6.38157895 3.78972973,5.03289474 L3.78972973,5 C3.88945946,7.26973684 7.1472973,9.21052632 11.6683784,9.90131579 C11.6683784,10.0657895 11.6683784,10.1973684 11.6683784,10.3618421 C11.7016216,14.5065789 12.8983784,17.9934211 14.4940541,18.9802632 L14.4940541,18.9802632 Z M15.5245946,15.8881579 C14.2945946,15.8881579 13.2640541,13.3223684 13.1975676,10.0986842 C13.9621622,10.1644737 14.7267568,10.1973684 15.5245946,10.1973684 C16.3224324,10.1973684 17.087027,10.1644737 17.8516216,10.0986842 C17.7851351,13.3223684 16.7545946,15.8881579 15.5245946,15.8881579 Z M16.5218919,18.9802632 L16.5218919,18.9802632 C18.1175676,17.9605263 19.3143243,14.5065789 19.3143243,10.3618421 C19.3143243,10.1973684 19.3143243,10.0657895 19.3143243,9.90131579 C23.8354054,9.21052632 27.1264865,7.26973684 27.192973,5 L27.192973,5.03289474 C28.29,6.38157895 28.9216216,7.96052632 28.9216216,9.63815789 C28.9548649,14.5723684 23.4697297,18.6513158 16.5218919,18.9802632 Z M86.9643243,2.36842105 C82.7091892,2.36842105 79.2186486,5.78947368 79.2186486,10.0328947 C79.2186486,14.2763158 82.6759459,17.6973684 86.9643243,17.6973684 C91.2527027,17.6973684 94.71,14.2763158 94.71,10.0328947 C94.71,5.78947368 91.2527027,2.36842105 86.9643243,2.36842105 Z M86.9643243,14.8684211 C84.5708108,14.8684211 82.6427027,12.6973684 82.6427027,10.0328947 C82.6427027,7.36842105 84.5708108,5.19736842 86.9643243,5.19736842 C89.3578378,5.19736842 91.2859459,7.36842105 91.2859459,10.0328947 C91.2859459,12.6973684 89.3578378,14.8684211 86.9643243,14.8684211 Z M108.040541,5.52631579 L103.519459,5.52631579 L103.519459,5.52631579 L103.519459,5.52631579 L103.519459,17.3026316 L100.228378,17.3026316 L100.228378,5.52631579 L95.6740541,5.52631579 L95.6740541,2.86184211 L108.040541,2.86184211 L108.040541,5.52631579 Z M116.982973,2.89473684 L114.955135,2.89473684 L112.927297,2.89473684 L106.91027,17.3355263 L110.7,17.3355263 L111.963243,14.0789474 L111.963243,14.0789474 L114.955135,14.0789474 L117.947027,14.0789474 L117.947027,14.0789474 L119.21027,17.3355263 L123,17.3355263 L116.982973,2.89473684 Z M112.894054,11.6447368 L114.921892,6.34868421 L114.955135,6.34868421 L116.982973,11.6447368 L114.921892,11.6447368 L112.894054,11.6447368 Z M35.6035135,2.89473684 L47.97,2.89473684 L47.97,5.55921053 L43.4489189,5.55921053 L43.4489189,5.55921053 L43.4489189,5.55921053 L43.4489189,17.3355263 L40.1910811,17.3355263 L40.1910811,5.55921053 L35.6367568,5.55921053 L35.6367568,2.89473684 L35.6035135,2.89473684 Z M56.5135135,2.36842105 C52.2251351,2.36842105 48.7678378,5.78947368 48.7678378,10.0328947 C48.7678378,14.2763158 52.2251351,17.6973684 56.5135135,17.6973684 C60.7686486,17.6973684 64.2591892,14.2763158 64.2591892,10.0328947 C64.2591892,5.78947368 60.8018919,2.36842105 56.5135135,2.36842105 Z M56.5135135,14.8684211 C54.12,14.8684211 52.1918919,12.6973684 52.1918919,10.0328947 C52.1918919,7.36842105 54.12,5.19736842 56.5135135,5.19736842 C58.907027,5.19736842 60.8351351,7.36842105 60.8351351,10.0328947 C60.8351351,12.6973684 58.907027,14.8684211 56.5135135,14.8684211 Z M75.2959459,2.89473684 L79.0856757,2.89473684 L73.4010811,11.8421053 L73.4010811,11.9078947 L73.4010811,17.3355263 L71.7389189,17.3355263 L71.7389189,17.3355263 L70.0767568,17.3355263 L70.0767568,11.9078947 L70.0767568,11.8421053 L64.3921622,2.89473684 L68.1818919,2.89473684 L71.7056757,8.94736842 L75.2959459,2.89473684 Z" id="logosvg.com_1_" fill="#FF0000" fill-rule="nonzero"></path>
            </g>
        </g>
    </g>
</svg>