<svg width="16" height="16" viewBox="0 0 16 16" fill="none" xmlns="http://www.w3.org/2000/svg">
<path d="M4.76933 11.2307L8.97467 8.97467L11.2307 4.76933L7.02533 7.02533L4.76933 11.2307ZM8 8.66667C7.81111 8.66667 7.65289 8.60267 7.52533 8.47467C7.39778 8.34667 7.33378 8.18844 7.33333 8C7.33333 7.81111 7.39733 7.65289 7.52533 7.52533C7.65333 7.39778 7.81156 7.33378 8 7.33333C8.18889 7.33333 8.34733 7.39733 8.47533 7.52533C8.60333 7.65333 8.66711 7.81156 8.66667 8C8.66667 8.18889 8.60267 8.34733 8.47467 8.47533C8.34667 8.60333 8.18844 8.66711 8 8.66667ZM8.002 14C7.17267 14 6.39267 13.8427 5.662 13.528C4.93178 13.2129 4.29644 12.7853 3.756 12.2453C3.21556 11.7058 2.78778 11.0711 2.47267 10.3413C2.15756 9.61156 2 8.83178 2 8.002C2 7.17267 2.15733 6.39267 2.472 5.662C2.78711 4.93178 3.21467 4.29644 3.75467 3.756C4.29422 3.21556 4.92889 2.78778 5.65867 2.47267C6.38844 2.15756 7.16822 2 7.998 2C8.82733 2 9.60733 2.15733 10.338 2.472C11.0682 2.78711 11.7036 3.21467 12.244 3.75467C12.7844 4.29422 13.2122 4.92889 13.5273 5.65867C13.8424 6.38844 14 7.16822 14 7.998C14 8.82733 13.8427 9.60733 13.528 10.338C13.2129 11.0682 12.7853 11.7036 12.2453 12.244C11.7058 12.7844 11.0711 13.2122 10.3413 13.5273C9.61156 13.8424 8.83178 14 8.002 14ZM8 13.3333C9.48889 13.3333 10.75 12.8167 11.7833 11.7833C12.8167 10.75 13.3333 9.48889 13.3333 8C13.3333 6.51111 12.8167 5.25 11.7833 4.21667C10.75 3.18333 9.48889 2.66667 8 2.66667C6.51111 2.66667 5.25 3.18333 4.21667 4.21667C3.18333 5.25 2.66667 6.51111 2.66667 8C2.66667 9.48889 3.18333 10.75 4.21667 11.7833C5.25 12.8167 6.51111 13.3333 8 13.3333Z" fill="white"/>
</svg>
