<svg width="34" height="34" viewBox="0 0 34 34" fill="none" xmlns="http://www.w3.org/2000/svg">
<g filter="url(#filter0_d_418_83)">
<path d="M5 13.2448C5 10.498 5 9.1252 5.624 7.9876C6.2456 6.8488 7.3844 6.1432 9.6608 4.7296L12.0608 3.2404C14.4668 1.7464 15.6704 1 17 1C18.3296 1 19.532 1.7464 21.9392 3.2404L24.3392 4.7296C26.6156 6.1432 27.7544 6.8488 28.3772 7.9876C29 9.1252 29 10.498 29 13.2436V15.07C29 19.75 29 22.0912 27.5936 23.5456C26.1884 25 23.9252 25 19.4 25H14.6C10.0748 25 7.8116 25 6.4064 23.5456C5 22.0912 5 19.7512 5 15.07V13.2448Z" stroke="white" stroke-width="1.5"/>
<path d="M17 16.6V20.2" stroke="white" stroke-width="1.5" stroke-linecap="round"/>
</g>
<defs>
<filter id="filter0_d_418_83" x="0.25" y="0.25" width="33.5" height="33.5" filterUnits="userSpaceOnUse" color-interpolation-filters="sRGB">
<feFlood flood-opacity="0" result="BackgroundImageFix"/>
<feColorMatrix in="SourceAlpha" type="matrix" values="0 0 0 0 0 0 0 0 0 0 0 0 0 0 0 0 0 0 127 0" result="hardAlpha"/>
<feOffset dy="4"/>
<feGaussianBlur stdDeviation="2"/>
<feComposite in2="hardAlpha" operator="out"/>
<feColorMatrix type="matrix" values="0 0 0 0 0 0 0 0 0 0 0 0 0 0 0 0 0 0 0.25 0"/>
<feBlend mode="normal" in2="BackgroundImageFix" result="effect1_dropShadow_418_83"/>
<feBlend mode="normal" in="SourceGraphic" in2="effect1_dropShadow_418_83" result="shape"/>
</filter>
</defs>
</svg>
