<svg xmlns="http://www.w3.org/2000/svg" xml:space="preserve" enable-background="new 0 0 300 227.3" viewBox="0 0 300 227.3" id="Womanchangingsongsfromonlineplaylist">
  <g fill="#000000" class="color000000 svgShape">
    <g fill="#000000" class="color000000 svgShape">
      <path d="M232.2,202.3h-69.3c-6.7,0-12.2-5.5-12.2-12.2V24.7c0-6.7,5.5-12.2,12.2-12.2h69.3c6.7,0,12.2,5.5,12.2,12.2v165.4
			C244.3,196.8,238.9,202.3,232.2,202.3z" fill="#000000" class="color000000 svgShape"></path>
      <path fill="#ffffff" d="M231.8,16.6h-68.6c-4.9,0-8.9,4-8.9,8.9V190c0,4.9,4,8.9,8.9,8.9h68.6c4.9,0,8.9-4,8.9-8.9V25.4
			C240.6,20.5,236.7,16.6,231.8,16.6z" class="colorffffff svgShape"></path>
      <g fill="#000000" class="color000000 svgShape">
        <circle cx="197.4" cy="158.5" r="6.2" fill="#ee10b0" class="colordf7373 svgShape"></circle>
        <path fill="#ffffff" d="M199.9,158.2l-3.7-2.4c-0.2-0.2-0.5,0-0.5,0.3v4.9c0,0.3,0.3,0.4,0.5,0.3l3.7-2.4
				C200.1,158.6,200.1,158.3,199.9,158.2z" class="colorffffff svgShape"></path>
      </g>
      <g fill="#000000" class="color000000 svgShape">
        <path fill="#ee10b0" d="M265,57h-84c-0.8,0-1.5-0.7-1.5-1.5V37.2c0-0.8,0.7-1.5,1.5-1.5h84c0.8,0,1.5,0.7,1.5,1.5v18.3
				C266.5,56.3,265.9,57,265,57z" class="colordf7373 svgShape"></path>
        <path fill="#fcceef" d="M199,54.4h-13.2c-0.8,0-1.5-0.7-1.5-1.5V39.7c0-0.8,0.7-1.5,1.5-1.5H199c0.8,0,1.5,0.7,1.5,1.5v13.2
				C200.5,53.7,199.9,54.4,199,54.4z" class="colorfcd5ce svgShape"></path>
        <line x1="204" x2="245.2" y1="41.5" y2="41.5" fill="none" stroke="#000000" stroke-miterlimit="10" stroke-width="1.284" class="colorStroke000000 svgStroke"></line>
        <line x1="204" x2="231.2" y1="49.7" y2="49.7" fill="none" stroke="#000000" stroke-miterlimit="10" stroke-width="1.284" class="colorStroke000000 svgStroke"></line>
        <circle cx="255.5" cy="45.8" r="6.2" fill="#000000" class="color000000 svgShape"></circle>
        <g fill="#000000" class="color000000 svgShape">
          <rect width="1.2" height="5" x="253.6" y="43.3" fill="#ffffff" class="colorffffff svgShape"></rect>
          <rect width="1.2" height="5" x="256.2" y="43.3" fill="#ffffff" class="colorffffff svgShape"></rect>
        </g>
        <path fill="#ee10b0" d="M265,87.6h-84c-0.8,0-1.5-0.7-1.5-1.5V67.8c0-0.8,0.7-1.5,1.5-1.5h84c0.8,0,1.5,0.7,1.5,1.5v18.3
				C266.5,86.9,265.9,87.6,265,87.6z" class="colordf7373 svgShape"></path>
        <path fill="#fcceef" d="M199,85h-13.2c-0.8,0-1.5-0.7-1.5-1.5V70.3c0-0.8,0.7-1.5,1.5-1.5H199c0.8,0,1.5,0.7,1.5,1.5v13.2
				C200.5,84.4,199.9,85,199,85z" class="colorfcd5ce svgShape"></path>
        <line x1="204" x2="245.2" y1="72.1" y2="72.1" fill="none" stroke="#000000" stroke-miterlimit="10" stroke-width="1.284" class="colorStroke000000 svgStroke"></line>
        <line x1="204" x2="231.2" y1="80.3" y2="80.3" fill="none" stroke="#000000" stroke-miterlimit="10" stroke-width="1.284" class="colorStroke000000 svgStroke"></line>
        <circle cx="255.5" cy="76.5" r="6.2" fill="#000000" class="color000000 svgShape"></circle>
        <g fill="#000000" class="color000000 svgShape">
          <circle cx="255.5" cy="76.5" r="6.2" fill="#000000" class="color000000 svgShape"></circle>
          <path fill="#ffffff" d="M257.9,76.2l-3.7-2.4c-0.2-0.2-0.5,0-0.5,0.3v4.9c0,0.3,0.3,0.4,0.5,0.3l3.7-2.4
					C258.1,76.6,258.1,76.3,257.9,76.2z" class="colorffffff svgShape"></path>
        </g>
      </g>
      <g fill="#000000" class="color000000 svgShape">
        <circle cx="197.5" cy="121.1" r="20.6" fill="none" stroke="#000000" stroke-miterlimit="10" stroke-width=".321" class="colorStroke000000 svgStroke"></circle>
        <path fill="none" stroke="#df73c1" stroke-linecap="round" stroke-linejoin="round" stroke-miterlimit="10" stroke-width=".963" d="M197.5,100.5c11.4,0,20.6,9.2,20.6,20.6s-9.2,20.6-20.6,20.6" class="colorStrokedf7373 svgStroke"></path>
        <circle cx="197.5" cy="121.1" r="18" fill="#000000" class="color000000 svgShape"></circle>
        <circle cx="197.5" cy="121.1" r="4.8" fill="#ffffff" class="colorffffff svgShape"></circle>
      </g>
      <circle cx="218.1" cy="158.5" r="6.2" fill="#fcceef" class="colorfcd5ce svgShape"></circle>
      <g fill="#000000" class="color000000 svgShape">
        <path fill="#ee10b0" d="M220,158.2l-3.7-2.4c-0.2-0.2-0.5,0-0.5,0.3v4.9c0,0.3,0.3,0.4,0.5,0.3l3.7-2.4
				C220.2,158.6,220.2,158.3,220,158.2z" class="colordf7373 svgShape"></path>
        <line x1="220.5" x2="220.5" y1="155.7" y2="161.2" fill="none" stroke="#df73c1" stroke-miterlimit="10" stroke-width=".963" class="colorStrokedf7373 svgStroke"></line>
      </g>
      <g fill="#000000" class="color000000 svgShape">
        <circle cx="176.8" cy="158.5" r="6.2" fill="#fcceef" class="colorfcd5ce svgShape"></circle>
        <g fill="#000000" class="color000000 svgShape">
          <path fill="#ee10b0" d="M174.9,158.8l3.7,2.4c0.2,0.2,0.5,0,0.5-0.3V156c0-0.3-0.3-0.4-0.5-0.3l-3.7,2.4
					C174.7,158.3,174.7,158.6,174.9,158.8z" class="colordf7373 svgShape"></path>
          <line x1="174.5" x2="174.5" y1="161.2" y2="155.7" fill="none" stroke="#df73c1" stroke-miterlimit="10" stroke-width=".963" class="colorStrokedf7373 svgStroke"></line>
        </g>
      </g>
    </g>
    <g fill="#000000" class="color000000 svgShape">
      <g fill="#000000" class="color000000 svgShape">
        <path fill="#ff9de4" d="M136.3,60.6l9-3.3c0,0,1.9-3.9,4.3-7.1c2.5-3.2,3.5-5.7,3.5-5.7s1.6-6,4.3-5.3c2.7,0.8,1.7,3.4,1.4,4.1
				s-3.1,8.6-3.1,8.6l18-7.6c1.1-0.5,2.3,0,2.8,1.1v0c0.5,1.1,0.1,2.4-1,2.9l-9.6,4.7c0,0,2.1,0.1,2.3,1.6c0.3,1.5-1.4,2.8-2.6,3.3
				c0,0,2.1,0,2.5,2.1c0.3,1.8-3,3.1-3,3.1s2.2,0.2,2.5,1.8c0.3,1.6-1.1,2.6-2.2,3.1c-0.7,0.3-4.4,1.9-6.4,2.8c-1,0.4-2,0.7-3,0.9
				l-3.1,0.7c-0.7,0.1-1.3,0.3-1.9,0.6l-8.6,3.1L136.3,60.6z" class="colorffbe9d svgShape"></path>
        <path fill="none" stroke="#000000" stroke-linecap="round" stroke-linejoin="round" stroke-miterlimit="10" stroke-width=".321" d="M166,53.1l-6.8,2.6c-1,0.4-1.5,1.5-1.2,2.5v0c0.3,1,1.4,1.5,2.4,1.3l5.4-1.4" class="colorStroke000000 svgStroke"></path>
        <path fill="none" stroke="#000000" stroke-linecap="round" stroke-linejoin="round" stroke-miterlimit="10" stroke-width=".321" d="M165.9,58l-6.9,2.2c-1.1,0.4-1.8,1.6-1.4,2.7v0c0.4,1,1.4,1.6,2.5,1.4l5.6-1.3" class="colorStroke000000 svgStroke"></path>
        <path fill="none" stroke="#000000" stroke-linecap="round" stroke-linejoin="round" stroke-miterlimit="10" stroke-width=".321" d="M165.6,63l-4.7,1.4c-1.2,0.4-1.9,1.7-1.4,2.9l0,0c0.4,1,1.3,1.6,2.4,1.4l3.5-0.7" class="colorStroke000000 svgStroke"></path>
      </g>
      <path fill="#ff9de4" d="M121.5,83.8c-4.6,1.6-9.6-0.9-11.2-5.5c-1.6-4.6,0.9-9.6,5.5-11.2l26.5-8.6l7.1,15L121.5,83.8z" class="colorffbe9d svgShape"></path>
      <path fill="#ff9de4" d="M125.1 69.5c3.4 3.5 3.2 9.1-.3 12.4-3.5 3.4-9.1 3.2-12.4-.3L93.5 61.1l10.7-12.8L125.1 69.5zM49.2 87.1c-2.9 3.8-8.5 4.6-12.3 1.6-3.8-2.9-4.6-8.5-1.6-12.3l17.3-21.8 14.3 8.6L49.2 87.1z" class="colorffbe9d svgShape"></path>
      <g fill="#000000" class="color000000 svgShape">
        <path fill="#ee10b0" d="M106.9,78L88.9,61c-4-3.8-4.2-10.2-0.3-14.2c3.8-4,10.2-4.2,14.2-0.3l18,17.1
				C120.8,63.6,117.2,72.5,106.9,78z" class="colordf7373 svgShape"></path>
      </g>
      <g fill="#000000" class="color000000 svgShape">
        <path d="M86.9,14.3c0,0-8.4-2.5-12.9,5c-4.3,7-9.4,25-9.4,25l14.9-0.6L86.9,14.3z" fill="#000000" class="color000000 svgShape"></path>
      </g>
      <g fill="#000000" class="color000000 svgShape">
        <path d="M79.3,14.9c0,0,7.2-3.3,13,2.6c6.4,6.5-0.1,28.2-0.1,28.2l-7.7-1.4L79.3,14.9z" fill="#000000" class="color000000 svgShape"></path>
      </g>
      <rect width="22" height="18.1" x="83.7" y="182.7" fill="#ff9de4" transform="rotate(-180 94.74 191.772)" class="colorffbe9d svgShape"></rect>
      <g fill="#000000" class="color000000 svgShape">
        <path d="M82.8,207.1l43.6,0.4l0,0c0-2.4-1.2-4.6-3.3-5.8c-5.4-3.1-15.6-9-15.9-9.1c-0.4-0.2-0.9,0.1-1.3,0.5c0,0-1.5,1.7-3,2.3
				c0,0,0,0,0,0c-0.4,0.2-0.8,0.3-1.4,0.5c-1.9,0.5-4.7,0.9-8.4,0.8c-4.2-0.1-7.1-1.1-7.5-1.1c-0.4,0-1.1,0.7-1.2,1.2
				c0,0.1-0.1,0.7-0.3,1.5C83.8,201.2,82.8,207.1,82.8,207.1z" fill="#000000" class="color000000 svgShape"></path>
        <g fill="#000000" class="color000000 svgShape">
          <path fill="#f2f2f2" d="M101.6,195.9l12.4,8.8c0.1,0.1,0.2,0.1,0.3,0.1c0.2,0,0.4-0.1,0.5-0.2c0.2-0.3,0.1-0.6-0.1-0.8l-11.7-8.3
					C102.6,195.6,102.2,195.7,101.6,195.9z" class="colorf2f2f2 svgShape"></path>
        </g>
        <polygon fill="#ee10b0" points="126.4 211.3 82.8 210.9 82.8 207.1 126.5 207.5" class="colordf7373 svgShape"></polygon>
      </g>
      <rect width="22" height="17.6" x="66.5" y="183.8" fill="#ff9de4" transform="matrix(-.9999 -.01048 .01048 -.9999 153.104 385.877)" class="colorffbe9d svgShape"></rect>
      <g fill="#000000" class="color000000 svgShape">
        <path fill="#fcceef" d="M75.7,77c0,0-3,15.2-1.8,24.9c1.2,9.7,3.6,31.9,3.6,35.8c0,3.9,1.1,47.3,1.1,47.3s7.6,1.7,15.6,1.3
				c8.1-0.5,12.5-1.6,12.5-1.6s3.7-35.5,2.3-53.6c-1.7-22.2-8.6-54.8-8.6-54.8L75.7,77z" class="colorfcd5ce svgShape"></path>
      </g>
      <path fill="#fcceef" d="M61.6,140.7c0-3.9-2.4-26-3.6-35.8C56.8,95.2,59.8,80,59.8,80l38.5-1.8l-6.8,41.3c0.7,5,1.2,10,1.6,14.5
			c1.4,18.1-2.3,53.6-2.3,53.6s-4.5,1.1-12.5,1.6c-8.1,0.5-15.6-1.3-15.6-1.3S61.7,144.6,61.6,140.7z" class="colorfcd5ce svgShape"></path>
      <path fill="#ff9de4" d="M77.9,28.4c1.6,5.7,7.7,9.9,11.3,8.3c5.1-2.3,4.5-6.3,3.9-12.3c-0.8-8.2-5.9-9.5-9.7-8.5
			C79.6,17,76.3,22.7,77.9,28.4z" class="colorffbe9d svgShape"></path>
      <polygon fill="#ff9de4" points="78.2 41.5 89.1 44.4 89.4 39.5 89.6 36.5 89.8 33.9 79.7 32.1" class="colorffbe9d svgShape"></polygon>
      <path fill="none" stroke="#000000" stroke-linecap="round" stroke-linejoin="round" stroke-miterlimit="10" stroke-width=".321" d="M89.6,36.5c-1.7,0.8-4.9,1.2-8.7-2.9" class="colorStroke000000 svgStroke"></path>
      <path fill="#ee10b0" d="M56.3,99.5c0,0,37,7.5,49.8-1l-3.2-50.9c0,0-1.5-4.2-12.4-5.5c-0.4,0-0.8-0.1-1.2-0.1c0,0-3.2,2.8-10.8-2.6
			L78,39.4L75.7,39c-5-0.6-7-1.2-12.5,1.1L56.3,99.5z" class="colordf7373 svgShape"></path>
      <g fill="#000000" class="color000000 svgShape">
        <path d="M64.2,210.5l43.6,0.5l0,0c0-2.4-1.2-4.6-3.3-5.8c-5.4-3.1-15.6-9-15.9-9.1c-0.4-0.2-0.9,0.1-1.3,0.5c0,0-1.5,1.7-3,2.3
				c0,0,0,0,0,0c-0.4,0.2-0.8,0.3-1.4,0.5c-1.9,0.5-4.7,0.9-8.4,0.8c-4.2-0.1-7.1-1.1-7.5-1.1c-0.4,0-1.1,0.7-1.2,1.2
				c0,0.1-0.1,0.7-0.3,1.5C65.2,204.6,64.2,210.5,64.2,210.5z" fill="#000000" class="color000000 svgShape"></path>
        <g fill="#000000" class="color000000 svgShape">
          <path fill="#f2f2f2" d="M83.1,199.3l12.4,8.8c0.1,0.1,0.2,0.1,0.3,0.1c0.2,0,0.4-0.1,0.5-0.2c0.2-0.3,0.1-0.6-0.1-0.8l-11.7-8.3
					C84,199,83.6,199.2,83.1,199.3z" class="colorf2f2f2 svgShape"></path>
        </g>
        <polygon fill="#ee10b0" points="107.8 214.8 64.2 214.3 64.2 210.5 107.9 210.9" class="colordf7373 svgShape"></polygon>
      </g>
      <path fill="#ffffff" d="M77,39.3c0.8,1.2,3.1,2.6,4.8,3.4c3.5,1.8,7.2,1.6,8.7-0.5c-0.4,0-0.8-0.1-1.2-0.1c0,0-3.2,2.8-10.8-2.6
			L77,39.3z" class="colorffffff svgShape"></path>
      <path fill="#ee10b0" d="M73.2,41.6c-4.3-3.4-10.6-2.7-14.1,1.7L39.7,68.4c8.6,7.5,16.7,10.4,16.7,10.4l18.3-23.2
			C78.2,51.3,77.5,45,73.2,41.6z" class="colordf7373 svgShape"></path>
      <g fill="#000000" class="color000000 svgShape">
        <path d="M90.8,23.8c0,0,2.8-4.5,0.3-7c-2.1-2.1-4.2-1.8-4.2-1.8s-4.7-2.5-9.2,1.8c-4.6,4.3-2.2,11.7-2.2,11.7s2.3-1,4.4-0.1
				c0,0,3.6-0.5,5.8-3.5c2.2-3,3.2-6.1,3.2-6.1S90.5,19.2,90.8,23.8z" fill="#000000" class="color000000 svgShape"></path>
      </g>
      <ellipse cx="78.3" cy="28.3" fill="#ff9de4" rx="3.4" ry="4.2" transform="rotate(-4.355 78.26 28.288)scale(.99999)" class="colorffbe9d svgShape"></ellipse>
      <path fill="none" stroke="#000000" stroke-linecap="round" stroke-linejoin="round" stroke-miterlimit="10" stroke-width=".321" d="M77,26.5c0,0,1.8,0.5,2.1,2.7c0,0-1.8-0.6-2.1,1.1" class="colorStroke000000 svgStroke"></path>
      <line x1="104.6" x2="103.7" y1="75.6" y2="64.2" fill="none" stroke="#000000" stroke-linecap="round" stroke-linejoin="round" stroke-miterlimit="10" stroke-width=".642" class="colorStroke000000 svgStroke"></line>
      <line x1="59.1" x2="66.4" y1="75.6" y2="66.3" fill="none" stroke="#000000" stroke-linecap="round" stroke-linejoin="round" stroke-miterlimit="10" stroke-width=".642" class="colorStroke000000 svgStroke"></line>
      <path fill="none" stroke="#000000" stroke-linecap="round" stroke-linejoin="round" stroke-miterlimit="10" stroke-width=".321" d="M90.9,187.6c4.3-31.1,0.7-68.1,0.7-68.1l2.8-16.9" class="colorStroke000000 svgStroke"></path>
      <path fill="#ff9de4" d="M38.5,89.9c-4.4-2-6.3-7.3-4.3-11.7c2-4.4,7.3-6.3,11.7-4.3l27.2,14.2l-8.6,13L38.5,89.9z" class="colorffbe9d svgShape"></path>
      <path d="M75.7,110.6l12.3,4.1c0.7,0.2,1.5,0,2-0.6l13.4-23c0.6-0.7,0.3-1.7-0.5-1.9l-12.3-4.1c-0.7-0.2-1.5,0-2,0.6l-13.4,23
			C74.6,109.3,74.9,110.3,75.7,110.6z" fill="#000000" class="color000000 svgShape"></path>
      <g fill="#000000" class="color000000 svgShape">
        <path fill="#ff9de4" d="M86.8,92.2c2.1,1.5,7.4,3,8.3,3.2c0.9,0.2,2.8,1.1,2.2,3.1c-0.6,2-2.5,1.9-2.5,1.9s3.1,0.8,1.9,3.5
				c-1.2,2.7-4.7,0.6-4.7,0.6c1.7,1.6,0.4,3.4,0.4,3.4c-1.4,1.9-3.8,0.3-3.8,0.3s1.1,1.4,0.2,2.9c-1.2,1.9-5.3-0.3-5.3-0.3
				c-12.1-4.4-16.5-8.3-16.5-8.3l-2.7-1.6c-1.9-0.6-3-2.5-2.6-4.5l1.3-5.9c0.4-2,2.4-3.3,4.4-2.9c3.5,0.6,5.6,0.6,5.6,0.6
				S79.8,87.3,86.8,92.2z" class="colorffbe9d svgShape"></path>
        <line x1="94.8" x2="83.7" y1="100.4" y2="96.5" fill="none" stroke="#000000" stroke-linecap="round" stroke-linejoin="round" stroke-miterlimit="10" stroke-width=".321" class="colorStroke000000 svgStroke"></line>
        <line x1="92" x2="82.8" y1="104.5" y2="100.6" fill="none" stroke="#000000" stroke-linecap="round" stroke-linejoin="round" stroke-miterlimit="10" stroke-width=".321" class="colorStroke000000 svgStroke"></line>
        <line x1="88.9" x2="79.7" y1="108.4" y2="104.5" fill="none" stroke="#000000" stroke-linecap="round" stroke-linejoin="round" stroke-miterlimit="10" stroke-width=".321" class="colorStroke000000 svgStroke"></line>
      </g>
    </g>
  </g>
</svg>
