<svg xmlns="http://www.w3.org/2000/svg" xml:space="preserve" enable-background="new 0 0 300 227.3" viewBox="0 0 300 227.3" id="Womanlisteningtosongs">
  <g fill="#000000" class="color000000 svgShape">
    <path fill="#ff9de4" d="M138,70.6l0.2-0.1c3.6-1.9,8-0.8,10.2,2.5l7.8,11.4c2.3,3.4,1.4,7.9-1.9,10.2l0,0c-3.4,2.3-7.9,1.4-10.2-2
		l-8.4-12.5C133.4,76.9,134.5,72.4,138,70.6z" class="colorffbe9d svgShape"></path>
    <g fill="#000000" class="color000000 svgShape">
      <path fill="#ee10b0" d="M137.6,84.3l-15.7-14.5c-3.5-3.2-3.7-8.7-0.5-12.2c3.2-3.5,8.7-3.7,12.2-0.5l15.7,14.5
			C149.3,71.6,146.3,79.3,137.6,84.3z" class="colordf7373 svgShape"></path>
    </g>
    <g fill="#000000" class="color000000 svgShape">
      <path d="M226.9,207h-68.2c-6.6,0-12-5.4-12-12V32.2c0-6.6,5.4-12,12-12h68.2c6.6,0,12,5.4,12,12V195
			C238.9,201.6,233.6,207,226.9,207z" fill="#000000" class="color000000 svgShape"></path>
      <path fill="#ffffff" d="M226.5,24.3H159c-4.8,0-8.7,3.9-8.7,8.7v161.9c0,4.8,3.9,8.7,8.7,8.7h67.5c4.8,0,8.7-3.9,8.7-8.7V33
			C235.3,28.2,231.4,24.3,226.5,24.3z" class="colorffffff svgShape"></path>
      <polyline fill="none" stroke="#000" stroke-linecap="round" stroke-linejoin="round" stroke-miterlimit="10" stroke-width=".321" points="157.1 34 154.1 36 157.1 38.1"></polyline>
      <g fill="#000000" class="color000000 svgShape">
        <g fill="#000000" class="color000000 svgShape">
          <circle cx="165.2" cy="173.2" r="4.5" fill="#000000" class="color000000 svgShape"></circle>
          <path fill="#ffffff" d="M167,173l-2.7-1.8c-0.2-0.1-0.4,0-0.4,0.2v3.5c0,0.2,0.2,0.3,0.4,0.2l2.7-1.8
					C167.1,173.3,167.1,173.1,167,173z" class="colorffffff svgShape"></path>
        </g>
        <g fill="#000000" class="color000000 svgShape">
          <circle cx="165.2" cy="155.2" r="4.5" fill="#ee10b0" class="colordf7373 svgShape"></circle>
          <g fill="#000000" class="color000000 svgShape">
            <rect width=".9" height="4" x="163.7" y="153.2" fill="#ffffff" class="colorffffff svgShape"></rect>
            <rect width=".9" height="4" x="165.8" y="153.2" fill="#ffffff" class="colorffffff svgShape"></rect>
          </g>
        </g>
        <g fill="#000000" class="color000000 svgShape">
          <ellipse cx="165.2" cy="137.2" rx="4.5" ry="4.6" fill="#000000" class="color000000 svgShape"></ellipse>
          <path fill="#ffffff" d="M167,137l-2.7-1.8c-0.2-0.1-0.4,0-0.4,0.2v3.7c0,0.2,0.2,0.3,0.4,0.2l2.7-1.8
					C167.1,137.3,167.1,137.1,167,137z" class="colorffffff svgShape"></path>
        </g>
        <g fill="#000000" class="color000000 svgShape">
          <ellipse cx="165.2" cy="118.7" rx="4.5" ry="4.6" fill="#000000" class="color000000 svgShape"></ellipse>
          <path fill="#ffffff" d="M167,118.5l-2.7-1.8c-0.2-0.1-0.4,0-0.4,0.2v3.7c0,0.2,0.2,0.3,0.4,0.2l2.7-1.8
					C167.1,118.8,167.1,118.6,167,118.5z" class="colorffffff svgShape"></path>
        </g>
        <g fill="#000000" class="color000000 svgShape">
          <line x1="173.1" x2="210.5" y1="116.2" y2="116.2" fill="none" stroke="#000000" stroke-miterlimit="10" stroke-width=".963" class="colorStroke000000 svgStroke"></line>
          <line x1="173.1" x2="194.1" y1="119.2" y2="119.2" fill="none" stroke="#000000" stroke-miterlimit="10" stroke-width=".321" class="colorStroke000000 svgStroke"></line>
          <line x1="173.1" x2="183.6" y1="121.2" y2="121.2" fill="none" stroke="#000000" stroke-miterlimit="10" stroke-width=".321" class="colorStroke000000 svgStroke"></line>
        </g>
        <g fill="#000000" class="color000000 svgShape">
          <line x1="173.1" x2="210.5" y1="134.7" y2="134.7" fill="none" stroke="#000000" stroke-miterlimit="10" stroke-width=".963" class="colorStroke000000 svgStroke"></line>
          <line x1="173.1" x2="194.1" y1="137.8" y2="137.8" fill="none" stroke="#000000" stroke-miterlimit="10" stroke-width=".321" class="colorStroke000000 svgStroke"></line>
          <line x1="173.1" x2="183.6" y1="139.7" y2="139.7" fill="none" stroke="#000000" stroke-miterlimit="10" stroke-width=".321" class="colorStroke000000 svgStroke"></line>
        </g>
        <g fill="#000000" class="color000000 svgShape">
          <line x1="173.1" x2="210.5" y1="170.7" y2="170.7" fill="none" stroke="#000000" stroke-miterlimit="10" stroke-width=".963" class="colorStroke000000 svgStroke"></line>
          <line x1="173.1" x2="194.1" y1="173.8" y2="173.8" fill="none" stroke="#000000" stroke-miterlimit="10" stroke-width=".321" class="colorStroke000000 svgStroke"></line>
          <line x1="173.1" x2="183.6" y1="175.7" y2="175.7" fill="none" stroke="#000000" stroke-miterlimit="10" stroke-width=".321" class="colorStroke000000 svgStroke"></line>
        </g>
        <g fill="#000000" class="color000000 svgShape">
          <line x1="173.1" x2="210.5" y1="152.7" y2="152.7" fill="none" stroke="#df73c1" stroke-miterlimit="10" stroke-width=".963" class="colorStrokedf7373 svgStroke"></line>
          <line x1="173.1" x2="194.1" y1="155.8" y2="155.8" fill="none" stroke="#df73c1" stroke-miterlimit="10" stroke-width=".321" class="colorStrokedf7373 svgStroke"></line>
          <line x1="173.1" x2="183.6" y1="157.7" y2="157.7" fill="none" stroke="#df73c1" stroke-miterlimit="10" stroke-width=".321" class="colorStrokedf7373 svgStroke"></line>
        </g>
        <line x1="228.9" x2="154.1" y1="128.2" y2="128.2" fill="none" stroke="#000000" stroke-miterlimit="10" stroke-width=".321" class="colorStroke000000 svgStroke"></line>
        <line x1="154.1" x2="228.9" y1="110.2" y2="110.2" fill="none" stroke="#000000" stroke-miterlimit="10" stroke-width=".321" class="colorStroke000000 svgStroke"></line>
        <line x1="228.9" x2="154.1" y1="146.2" y2="146.2" fill="none" stroke="#000000" stroke-miterlimit="10" stroke-width=".321" class="colorStroke000000 svgStroke"></line>
        <line x1="228.9" x2="154.1" y1="164.2" y2="164.2" fill="none" stroke="#000000" stroke-miterlimit="10" stroke-width=".321" class="colorStroke000000 svgStroke"></line>
        <line x1="228.9" x2="154.1" y1="182.2" y2="182.2" fill="none" stroke="#000000" stroke-miterlimit="10" stroke-width=".321" class="colorStroke000000 svgStroke"></line>
      </g>
      <rect width="28.7" height="28.7" x="161.1" y="49.3" fill="#fcceef" class="colorfcd5ce svgShape"></rect>
      <path fill="#ee10b0" d="M222.1,72.6h-24.2c-1.5,0-2.7,1.2-2.7,2.7v0c0,1.5,1.2,2.7,2.7,2.7h24.2c1.5,0,2.7-1.2,2.7-2.7v0
			C224.8,73.8,223.6,72.6,222.1,72.6z" class="colordf7373 svgShape"></path>
      <path d="M188,92.5h-25.7c-0.7,0-1.2-0.5-1.2-1.2v-4.6c0-0.7,0.5-1.2,1.2-1.2H188c0.7,0,1.2,0.5,1.2,1.2v4.6
			C189.2,92,188.6,92.5,188,92.5z" fill="#000000" class="color000000 svgShape"></path>
      <path fill="#ffffff" d="M176.6,88.8l-2.7-1.8c-0.2-0.1-0.4,0-0.4,0.2v3.7c0,0.2,0.2,0.3,0.4,0.2l2.7-1.8
			C176.8,89.1,176.8,88.9,176.6,88.8z" class="colorffffff svgShape"></path>
      <path d="M223.3,92.5h-25.7c-0.7,0-1.2-0.5-1.2-1.2v-4.6c0-0.7,0.5-1.2,1.2-1.2h25.7c0.7,0,1.2,0.5,1.2,1.2v4.6
			C224.5,92,223.9,92.5,223.3,92.5z" fill="#000000" class="color000000 svgShape"></path>
      <g fill="#000000" class="color000000 svgShape">
        <path fill="#ffffff" d="m214 87.5-.8-.5c0 0-.1 0-.1.1v1.1c0 .1.1.1.1.1l.8-.5C214.1 87.6 214.1 87.5 214 87.5zM214 90.4l-.8-.5c0 0-.1 0-.1.1V91c0 .1.1.1.1.1l.8-.5C214.1 90.5 214.1 90.4 214 90.4z" class="colorffffff svgShape"></path>
        <path fill="none" stroke="#ffffff" stroke-miterlimit="10" stroke-width=".321" d="M206.8,87.6h1.5c0.3,0,0.6,0.1,0.9,0.4l2,2.2c0.2,0.2,0.5,0.4,0.9,0.4h1.2" class="colorStrokeffffff svgStroke"></path>
        <path fill="none" stroke="#ffffff" stroke-miterlimit="10" stroke-width=".321" d="M206.8,90.5h1.5c0.3,0,0.6-0.1,0.9-0.4l2-2.2c0.2-0.2,0.5-0.4,0.9-0.4h1.2" class="colorStrokeffffff svgStroke"></path>
      </g>
      <line x1="195.2" x2="214.1" y1="58.3" y2="58.3" fill="none" stroke="#df73c1" stroke-miterlimit="10" stroke-width="2.247" class="colorStrokedf7373 svgStroke"></line>
      <line x1="195.2" x2="222.8" y1="65.4" y2="65.4" fill="none" stroke="#df73c1" stroke-miterlimit="10" stroke-width=".321" class="colorStrokedf7373 svgStroke"></line>
      <g fill="#000000" class="color000000 svgShape">
        <circle cx="224" cy="35.3" r="1.8" fill="none" stroke="#000000" stroke-miterlimit="10" stroke-width=".321" class="colorStroke000000 svgStroke"></circle>
        <line x1="225.3" x2="227.2" y1="36.6" y2="38.5" fill="none" stroke="#000000" stroke-miterlimit="10" stroke-width=".321" class="colorStroke000000 svgStroke"></line>
      </g>
    </g>
    <rect width="20.1" height="20.1" x="69.6" y="135" fill="#ff9de4" transform="rotate(-90 79.713 145.113)" class="colorffbe9d svgShape"></rect>
    <g fill="#000000" class="color000000 svgShape">
      <path fill="#ee10b0" d="M65.6,132.6v41l0,0c2.2,0,4.3-1.2,5.4-3.2c2.9-5.1,8.3-14.7,8.4-15c0.2-0.4-0.1-0.8-0.5-1.2
			c0,0-1.6-1.4-2.2-2.8c0,0,0,0,0,0c-0.2-0.4-0.3-0.8-0.5-1.3c-0.5-1.8-0.9-4.4-0.8-7.9c0-4,1-6.7,1-7c0-0.4-0.7-1-1.2-1.1
			c-0.1,0-0.7-0.1-1.4-0.2C71.1,133.5,65.6,132.6,65.6,132.6z" class="colordf7373 svgShape"></path>
      <g fill="#000000" class="color000000 svgShape">
        <path fill="#f2f2f2" d="M76.3,150.2l-8.1,11.7c-0.1,0.1-0.1,0.2-0.1,0.3c0,0.2,0.1,0.3,0.2,0.5c0.3,0.2,0.6,0.1,0.8-0.1l7.7-11.1
				C76.6,151.1,76.4,150.7,76.3,150.2z" class="colorf2f2f2 svgShape"></path>
      </g>
      <rect width="41" height="4.5" x="42.8" y="150.9" transform="rotate(-90 63.33 153.106)" fill="#000000" class="color000000 svgShape"></rect>
    </g>
    <path fill="#fcceef" d="M115.8,130.7c-3.4,0.1-32.7,1.9-32.7,1.9l2.6,24.2l30.7-2.7L115.8,130.7z" class="colorfcd5ce svgShape"></path>
    <path d="M106.3,39.5c0-3.1,1.4-5.7,5.4-7.9c4.3-2.4,12.9,0.3,11.2,9l-10.4,9.8c-1.5,0.2-2.8-1-3.7-2.2
		C107,45.7,106.3,42.6,106.3,39.5z" fill="#000000" class="color000000 svgShape"></path>
    <polygon fill="#ff9de4" points="112.1 47.4 120.9 47.6 121.8 56.5 112.1 60.4" class="colorffbe9d svgShape"></polygon>
    <rect width="18.9" height="25.4" x="102.4" y="173" fill="#ff9de4" transform="matrix(-.9953 -.09636 .09636 -.9953 205.42 381.425)" class="colorffbe9d svgShape"></rect>
    <path fill="#fcceef" d="M139.5,87.4l-21.3-1c0,0-3.6,12.8-3.2,21.3c0.4,8.4,1.3,46.4,1.3,46.4l13.8-0.9c7.7-0.4,13.6-6.8,13.5-14.5
		C143.5,113.6,139.5,87.4,139.5,87.4z" class="colorfcd5ce svgShape"></path>
    <path fill="#fcceef" d="M102,140.1c0.3-3.4-0.3-22.5-0.7-30.9c-0.4-8.4,3.2-21.3,3.2-21.3l28.5,0.9l-3.8,35.1
		c0.2,4.4,0.4,8.6,0.4,12.5c0,15.6-5.5,47.5-5.5,47.5l-24.2,1.1C99.8,185.1,101.7,143.5,102,140.1z" class="colorfcd5ce svgShape"></path>
    <path fill="none" stroke="#000000" stroke-linecap="round" stroke-linejoin="round" stroke-miterlimit="10" stroke-width=".321" d="m130.6 109.6-1.5 14.3c.2 4.4.4 8.6.4 12.5 0 4.8-.5 10.4-1.2 16.9M101.2 155.4c.4-8 .7-14 .8-15.3.1-1.4.1-3.8 0-8.7" class="colorStroke000000 svgStroke"></path>
    <path fill="#ff9de4" d="M110.1,44.4c2.1,4.7,7.9,7.4,10.7,5.6c4.1-2.6,3-6,1.7-10.9c-1.7-6.8-6.3-7.3-9.4-5.9
		C110.1,34.5,108,39.8,110.1,44.4z" class="colorffbe9d svgShape"></path>
    <path fill="#ee10b0" d="M100,110.8c0,0,33.9,1.7,43.6-7.2l-9.8-46.1c0,0-1.8-3.4-11.3-3.1c-0.3,0-0.7,0-1,0.1c0,0-2.4,2.8-9.5-0.8
		l-0.5,0l-2,0c-3.2,0.1-5.4,0-9,1.7c-2.9,1.4-4.9,4.9-5,8.1c-0.3,6.4,0.8,16.2,2.7,27.4C99.8,99.7,100,110.8,100,110.8z" class="colordf7373 svgShape"></path>
    <g fill="#000000" class="color000000 svgShape">
      <path fill="#ee10b0" d="M99.1,202.6h40.3l0,0c0-2.2-1.2-4.2-3.1-5.3c-5-2.9-14.5-8.1-14.7-8.3c-0.4-0.2-0.8,0.1-1.2,0.5
			c0,0-1.4,1.6-2.7,2.2c0,0,0,0,0,0c-0.4,0.2-0.8,0.3-1.3,0.4c-1.8,0.5-4.3,0.9-7.8,0.8c-3.9,0-6.5-0.9-6.9-1c-0.3,0-1,0.6-1.1,1.1
			c0,0.1-0.1,0.6-0.2,1.4C100,197.2,99.1,202.6,99.1,202.6z" class="colordf7373 svgShape"></path>
      <g fill="#000000" class="color000000 svgShape">
        <path fill="#f2f2f2" d="M116.4,192.1l11.5,8c0.1,0.1,0.2,0.1,0.3,0.1c0.2,0,0.3-0.1,0.4-0.2c0.2-0.2,0.1-0.6-0.1-0.8l-10.9-7.6
				C117.3,191.8,116.9,192,116.4,192.1z" class="colorf2f2f2 svgShape"></path>
      </g>
      <rect width="40.3" height="4.4" x="99.1" y="202.6" transform="rotate(-180 119.278 204.806)" fill="#000000" class="color000000 svgShape"></rect>
    </g>
    <path d="M103,30.4c1.1-1.5,3.1-2.3,4.8-1.8c1.8,0.5,3,2.5,2.4,4.3l-3.1,3.8c-1.5,1.6-4-0.3-4.5-1.4C102,33.8,101.9,31.8,103,30.4z" fill="#000000" class="color000000 svgShape"></path>
    <g fill="#000000" class="color000000 svgShape">
      <path d="M119.7,36.6c-0.7,0.5-1.3,1.1-2.1,1.6c-0.5,0.3-1,0.6-1.5,0.9c-1.1,0.7-2.2,1.3-3.4,1.6c0.5,1.3,0.9,2.2,0.5,3.5
			c-0.4,1.2-1.1,2.2-2.4,2.3c-1.4-3.1-1.9-4.6-2.8-7.9c-0.2-0.7-0.4-1.4-0.2-2.1c0.3-1.1,1-2.7,2.2-3.1c1.6-0.6,3.1-1.2,4.7-1.8
			c0.8-0.3,2-0.3,3-0.1c0.8,0.2,1.5,0.7,2.1,1.2C119.9,32.6,121.9,34.9,119.7,36.6z" fill="#000000" class="color000000 svgShape"></path>
    </g>
    <g fill="#000000" class="color000000 svgShape">
      <path fill="#ee10b0" d="M110.4,32.4c-2,1-3,2.8-3.8,4.8C106.5,35,108.1,32.4,110.4,32.4L110.4,32.4z" class="colordf7373 svgShape"></path>
    </g>
    <ellipse cx="111.3" cy="44.6" fill="#ff9de4" rx="2.8" ry="3.5" transform="rotate(-13.186 111.265 44.606)" class="colorffbe9d svgShape"></ellipse>
    <path fill="#ff9de4" d="M112,79.1l0.2-0.1c3.8-1.5,8,0.1,9.9,3.7l6.4,12.2c1.9,3.6,0.5,8-3.1,9.9l0,0c-3.6,1.9-8,0.5-9.9-3.1
		l-6.9-13.4C106.7,84.8,108.3,80.5,112,79.1z" class="colorffbe9d svgShape"></path>
    <path fill="#ee10b0" d="M115,62.7c-1.9-4.6-7.3-6.8-11.9-4.9c-4.6,1.9-6.8,7.3-4.9,11.9l8.3,20.1c10.2-2,16.8-7,16.8-7L115,62.7z" class="colordf7373 svgShape"></path>
    <path fill="none" stroke="#000000" stroke-linecap="round" stroke-linejoin="round" stroke-miterlimit="10" stroke-width=".321" d="M98.2,69.7l8.3,20.1c10.2-2,16.8-7,16.8-7L115,62.7" class="colorStroke000000 svgStroke"></path>
    <path fill="#ff9de4" d="M124.1,105.5c-3.7,0.4-7-2.2-7.4-5.9c-0.4-3.7,2.2-7,5.9-7.4l21.2-2.1l2,12.7L124.1,105.5z" class="colorffbe9d svgShape"></path>
    <path fill="#ff9de4" d="M158.6,88.7l9.7-1.8c1-0.2,2,0.4,2.3,1.4v0c0.4,1.2-0.3,2.4-1.5,2.7l-6.8,1.6c0,0,1.7,0.4,1.2,2.6
		c0,0-0.1,1.2-1.8,1.6c0,0,1.5,0.9,0.9,2.4c-0.6,1.6-1.9,1.6-1.9,1.6s1.4,1.5-0.7,2.7c0,0-1,0.7-3.6,0c0,0-5.9-0.4-7.9-0.2
		c-2.1,0.2-6.9-1.8-6.9-1.8l0,0c-1.6-0.1-2.9-1.2-3.4-2.8l-0.9-3.2c-0.6-2,0.6-4.1,2.6-4.7l2.8-0.8c0,0,6.8-1.3,9.7-3.2
		c1.6-1,3.1-1.1,4-1c0.7,0.1,1.3,0.6,1.5,1.2L158.6,88.7z" class="colorffbe9d svgShape"></path>
    <line x1="139.3" x2="138" y1="83.2" y2="77.1" fill="none" stroke="#000000" stroke-linecap="round" stroke-linejoin="round" stroke-miterlimit="10" stroke-width=".321" class="colorStroke000000 svgStroke"></line>
    <path fill="none" stroke="#000000" stroke-linecap="round" stroke-linejoin="round" stroke-miterlimit="10" stroke-width=".321" d="M121.1,49.8c0,0-3.6,1.7-6.4-0.4" class="colorStroke000000 svgStroke"></path>
    <g fill="#000000" class="color000000 svgShape">
      <path fill="#ffffff" d="M110.5,45.1L110.5,45.1c-0.1,0.7,0,1.3,0.3,1.9l0.9,2.1l0.5-0.2L110.5,45.1L110.5,45.1z" class="colorffffff svgShape"></path>
      <rect width=".3" height=".3" x="111.9" y="49" fill="#ffffff" transform="rotate(-23.36 112.05 49.14)" class="colorffffff svgShape"></rect>
      <path fill="#ffffff" d="M112,45.8c0,0.3-0.3,0.7-0.5,0.6c-0.4-0.1-0.8-0.3-1-0.7c-0.2-0.4-0.1-0.8,0.1-1.2c0.2-0.3,0.5-0.2,0.8,0.1
			C111.5,44.6,111.9,45.1,112,45.8z" class="colorffffff svgShape"></path>
      <path fill="#ffffff" d="M111.9,46.3l-0.4-1l-0.4-1c0.9-0.5,1.3,0,1.3,0l0.2,0.5l0.2,0.5C112.8,45.3,112.9,46,111.9,46.3z" class="colorffffff svgShape"></path>
    </g>
    <line x1="162.3" x2="159.3" y1="92.6" y2="93.1" fill="none" stroke="#000000" stroke-linecap="round" stroke-linejoin="round" stroke-miterlimit="10" stroke-width=".321" class="colorStroke000000 svgStroke"></line>
    <line x1="161.6" x2="159" y1="96.8" y2="96.8" fill="none" stroke="#000000" stroke-linecap="round" stroke-linejoin="round" stroke-miterlimit="10" stroke-width=".321" class="colorStroke000000 svgStroke"></line>
    <line x1="160.7" x2="158.6" y1="100.8" y2="100.5" fill="none" stroke="#000000" stroke-linecap="round" stroke-linejoin="round" stroke-miterlimit="10" stroke-width=".321" class="colorStroke000000 svgStroke"></line>
  </g>
</svg>
