<svg xmlns="http://www.w3.org/2000/svg" xml:space="preserve" enable-background="new 0 0 300 227.3" viewBox="0 0 300 227.3" id="ManplayingBollywoodsongsonheadphones">
  <g fill="#000000" class="color000000 svgShape">
    <g fill="#000000" class="color000000 svgShape">
      <g fill="#000000" class="color000000 svgShape">
        <rect width="28.6" height="55.7" x="135.7" y="147" fill="#fcceef" transform="rotate(-180 150 174.825)" class="colorfcd5ce svgShape"></rect>
        <rect width="28.6" height="11.5" x="135.7" y="126.1" fill="#fcceef" transform="rotate(-180 150 131.88)" class="colorfcd5ce svgShape"></rect>
      </g>
      <g fill="#000000" class="color000000 svgShape">
        <rect width="28.6" height="119.4" x="99" y="83.3" fill="#fcceef" transform="rotate(-180 113.362 142.974)" class="colorfcd5ce svgShape"></rect>
        <rect width="28.6" height="11.5" x="99" y="62.4" fill="#fcceef" transform="rotate(-180 113.362 68.178)" class="colorfcd5ce svgShape"></rect>
      </g>
      <g fill="#000000" class="color000000 svgShape">
        <rect width="28.6" height="81" x="62.4" y="121.6" fill="#fcceef" transform="rotate(-180 76.724 162.132)" class="colorfcd5ce svgShape"></rect>
        <rect width="28.6" height="11.5" x="62.4" y="100.7" fill="#fcceef" transform="rotate(-180 76.724 106.494)" class="colorfcd5ce svgShape"></rect>
      </g>
      <g fill="#000000" class="color000000 svgShape">
        <rect width="28.6" height="133" x="25.8" y="69.7" fill="#fcceef" transform="rotate(-180 40.086 136.156)" class="colorfcd5ce svgShape"></rect>
        <rect width="28.6" height="11.5" x="25.8" y="48.8" fill="#fcceef" transform="rotate(-180 40.086 54.541)" class="colorfcd5ce svgShape"></rect>
      </g>
      <g fill="#000000" class="color000000 svgShape">
        <rect width="28.6" height="100.6" x="172.3" y="102.1" fill="#fcceef" class="colorfcd5ce svgShape"></rect>
        <rect width="28.6" height="11.5" x="172.3" y="81.2" fill="#fcceef" class="colorfcd5ce svgShape"></rect>
      </g>
      <g fill="#000000" class="color000000 svgShape">
        <rect width="28.6" height="81" x="209" y="121.6" fill="#fcceef" class="colorfcd5ce svgShape"></rect>
        <rect width="28.6" height="11.5" x="209" y="100.7" fill="#fcceef" class="colorfcd5ce svgShape"></rect>
      </g>
      <g fill="#000000" class="color000000 svgShape">
        <rect width="28.6" height="146.4" x="245.6" y="56.2" fill="#fcceef" class="colorfcd5ce svgShape"></rect>
        <rect width="28.6" height="11.5" x="245.6" y="35.3" fill="#fcceef" class="colorfcd5ce svgShape"></rect>
      </g>
    </g>
    <g fill="#000000" class="color000000 svgShape">
      <g fill="#000000" class="color000000 svgShape">
        <path fill="none" stroke="#000000" stroke-miterlimit="10" stroke-width="5.778" d="M198.3,85.6V71.7c0-26-21.6-47.1-48.3-47.1h0c-26.7,0-48.3,21.1-48.3,47.1v13.8" class="colorStroke000000 svgStroke"></path>
        <g fill="#000000" class="color000000 svgShape">
          <path d="M92.5,105.8h0.4V87.8h-0.4c-2.7,0-4.8,2.2-4.8,4.8v8.3C87.7,103.6,89.8,105.8,92.5,105.8z" fill="#000000" class="color000000 svgShape"></path>
          <path fill="#ee10b0" d="M109.7,118.7h-4.8V74.9h4.8c1.2,0,2.2,1,2.2,2.2v39.3C111.9,117.7,110.9,118.7,109.7,118.7z" class="colordf7373 svgShape"></path>
          <path d="M104,118.7h0.9V74.9H104c-6.5,0-11.7,5.3-11.7,11.7v20.3C92.3,113.4,97.5,118.7,104,118.7z" fill="#000000" class="color000000 svgShape"></path>
        </g>
        <g fill="#000000" class="color000000 svgShape">
          <path d="M208.2,87.8h-0.4v17.9h0.4c2.7,0,4.8-2.2,4.8-4.8v-8.3C213,90,210.8,87.8,208.2,87.8z" fill="#000000" class="color000000 svgShape"></path>
          <path fill="#ee10b0" d="M191,74.9h4.8v43.8H191c-1.2,0-2.2-1-2.2-2.2V77.1C188.7,75.9,189.7,74.9,191,74.9z" class="colordf7373 svgShape"></path>
          <path d="M196.6,74.9h-0.9v43.8h0.9c6.5,0,11.7-5.3,11.7-11.7V86.6C208.4,80.1,203.1,74.9,196.6,74.9z" fill="#000000" class="color000000 svgShape"></path>
        </g>
      </g>
      <g fill="#000000" class="color000000 svgShape">
        <path d="M178.7,202.7h-56.8c-5.5,0-10-4.5-10-10V57.1c0-5.5,4.5-10,10-10h56.8c5.5,0,10,4.5,10,10v135.5
				C188.7,198.2,184.2,202.7,178.7,202.7z" fill="#000000" class="color000000 svgShape"></path>
        <path fill="#ffffff" d="M177.9,50.1h-56.2c-4,0-7.3,3.3-7.3,7.3v134.8c0,4,3.3,7.3,7.3,7.3h56.2c4,0,7.3-3.3,7.3-7.3V57.4
				C185.2,53.4,181.9,50.1,177.9,50.1z" class="colorffffff svgShape"></path>
        <g fill="#000000" class="color000000 svgShape">
          <circle cx="150.1" cy="174" r="7.9" fill="#ee10b0" class="colordf7373 svgShape"></circle>
          <path fill="#ffffff" d="M153.2,173.6l-4.7-3.1c-0.3-0.2-0.7,0-0.7,0.4v6.2c0,0.4,0.4,0.6,0.7,0.4l4.7-3.1
					C153.5,174.2,153.5,173.8,153.2,173.6z" class="colorffffff svgShape"></path>
          <g fill="#000000" class="color000000 svgShape">
            <path fill="#ee10b0" d="M174.6,173.6l-4.7-3.1c-0.3-0.2-0.7,0-0.7,0.4v6.2c0,0.4,0.4,0.6,0.7,0.4l4.7-3.1
						C174.9,174.2,174.9,173.8,174.6,173.6z" class="colordf7373 svgShape"></path>
            <path fill="#ee10b0" d="M179,173.6l-4.7-3.1c-0.3-0.2-0.7,0-0.7,0.4v6.2c0,0.4,0.4,0.6,0.7,0.4l4.7-3.1
						C179.2,174.2,179.2,173.8,179,173.6z" class="colordf7373 svgShape"></path>
          </g>
          <g fill="#000000" class="color000000 svgShape">
            <path fill="#ee10b0" d="M125.5,174.4l4.7,3.1c0.3,0.2,0.7,0,0.7-0.4v-6.2c0-0.4-0.4-0.6-0.7-0.4l-4.7,3.1
						C125.2,173.8,125.2,174.2,125.5,174.4z" class="colordf7373 svgShape"></path>
            <path fill="#ee10b0" d="M121.1,174.4l4.7,3.1c0.3,0.2,0.7,0,0.7-0.4v-6.2c0-0.4-0.4-0.6-0.7-0.4l-4.7,3.1
						C120.9,173.8,120.9,174.2,121.1,174.4z" class="colordf7373 svgShape"></path>
          </g>
        </g>
        <path d="M174.4,119.1h-48.8c-0.7,0-1.2-0.5-1.2-1.2V71.5c0-0.7,0.5-1.2,1.2-1.2h48.8c0.7,0,1.2,0.5,1.2,1.2v46.4
				C175.6,118.6,175,119.1,174.4,119.1z" fill="#000000" class="color000000 svgShape"></path>
        <g fill="#000000" class="color000000 svgShape">
          <path d="m177.5 143-.9-.6c-.1 0-.1 0-.1.1v1.2c0 .1.1.1.1.1l.9-.6C177.6 143.1 177.6 143.1 177.5 143zM177.5 146.2l-.9-.6c-.1 0-.1 0-.1.1v1.2c0 .1.1.1.1.1l.9-.6C177.6 146.3 177.6 146.3 177.5 146.2z" fill="#000000" class="color000000 svgShape"></path>
          <path fill="none" stroke="#000000" stroke-miterlimit="10" stroke-width=".321" d="M169.6,143.1h1.6c0.4,0,0.7,0.1,0.9,0.4l2.2,2.4c0.2,0.3,0.6,0.4,0.9,0.4h1.3" class="colorStroke000000 svgStroke"></path>
          <path fill="none" stroke="#000000" stroke-miterlimit="10" stroke-width=".321" d="M169.6,146.3h1.6c0.4,0,0.7-0.1,0.9-0.4l2.2-2.4c0.2-0.3,0.6-0.4,0.9-0.4h1.3" class="colorStroke000000 svgStroke"></path>
        </g>
        <g fill="#000000" class="color000000 svgShape">
          <path fill="none" stroke="#000000" stroke-miterlimit="10" stroke-width=".321" d="M122.5,145.1v-0.8c0-0.7,0.6-1.3,1.3-1.3h3.5" class="colorStroke000000 svgStroke"></path>
          <path d="M128.1,142.9l-0.8-0.5c0,0-0.1,0-0.1,0.1v1.1c0,0.1,0.1,0.1,0.1,0.1l0.8-0.5C128.1,143,128.1,143,128.1,142.9z" fill="#000000" class="color000000 svgShape"></path>
          <path fill="none" stroke="#000000" stroke-miterlimit="10" stroke-width=".321" d="M128.1,144.2v0.8c0,0.7-0.6,1.3-1.3,1.3h-3.5" class="colorStroke000000 svgStroke"></path>
          <path d="M122.6,146.4l0.8,0.5c0,0,0.1,0,0.1-0.1v-1.1c0-0.1-0.1-0.1-0.1-0.1l-0.8,0.5C122.5,146.3,122.5,146.4,122.6,146.4z" fill="#000000" class="color000000 svgShape"></path>
        </g>
        <line x1="132.3" x2="167.2" y1="126.3" y2="126.3" fill="none" stroke="#000000" stroke-miterlimit="10" stroke-width="2.568" class="colorStroke000000 svgStroke"></line>
        <line x1="125.3" x2="174.2" y1="137.4" y2="137.4" fill="none" stroke="#000000" stroke-miterlimit="10" stroke-width=".321" class="colorStroke000000 svgStroke"></line>
        <line x1="136.1" x2="163.4" y1="131.9" y2="131.9" fill="none" stroke="#000000" stroke-miterlimit="10" stroke-width=".321" class="colorStroke000000 svgStroke"></line>
        <g fill="#000000" class="color000000 svgShape">
          <line x1="174.7" x2="179.8" y1="58.2" y2="58.2" fill="none" stroke="#000000" stroke-miterlimit="10" stroke-width=".321" class="colorStroke000000 svgStroke"></line>
          <line x1="174.7" x2="179.8" y1="59.6" y2="59.6" fill="none" stroke="#000000" stroke-miterlimit="10" stroke-width=".321" class="colorStroke000000 svgStroke"></line>
          <line x1="174.7" x2="179.8" y1="60.9" y2="60.9" fill="none" stroke="#000000" stroke-miterlimit="10" stroke-width=".321" class="colorStroke000000 svgStroke"></line>
        </g>
        <polyline fill="none" stroke="#000" stroke-linecap="round" stroke-linejoin="round" stroke-miterlimit="10" stroke-width=".321" points="123.5 57.6 120.6 59.6 123.5 61.5"></polyline>
        <g fill="#000000" class="color000000 svgShape">
          <g fill="#000000" class="color000000 svgShape">
            <line x1="127.5" x2="127.5" y1="90.7" y2="98.7" fill="none" stroke="#ffffff" stroke-linecap="round" stroke-linejoin="round" stroke-miterlimit="10" stroke-width=".642" class="colorStrokeffffff svgStroke"></line>
            <line x1="131.3" x2="131.3" y1="88.4" y2="101.1" fill="none" stroke="#ffffff" stroke-linecap="round" stroke-linejoin="round" stroke-miterlimit="10" stroke-width=".642" class="colorStrokeffffff svgStroke"></line>
            <line x1="135" x2="135" y1="86" y2="103.4" fill="none" stroke="#ffffff" stroke-linecap="round" stroke-linejoin="round" stroke-miterlimit="10" stroke-width=".642" class="colorStrokeffffff svgStroke"></line>
            <line x1="138.8" x2="138.8" y1="83.7" y2="105.8" fill="none" stroke="#ffffff" stroke-linecap="round" stroke-linejoin="round" stroke-miterlimit="10" stroke-width=".642" class="colorStrokeffffff svgStroke"></line>
          </g>
          <g fill="#000000" class="color000000 svgShape">
            <line x1="150" x2="150" y1="98.7" y2="90.7" fill="none" stroke="#ffffff" stroke-linecap="round" stroke-linejoin="round" stroke-miterlimit="10" stroke-width=".642" class="colorStrokeffffff svgStroke"></line>
            <line x1="146.2" x2="146.2" y1="101.1" y2="88.4" fill="none" stroke="#ffffff" stroke-linecap="round" stroke-linejoin="round" stroke-miterlimit="10" stroke-width=".642" class="colorStrokeffffff svgStroke"></line>
            <line x1="142.5" x2="142.5" y1="103.4" y2="86" fill="none" stroke="#ffffff" stroke-linecap="round" stroke-linejoin="round" stroke-miterlimit="10" stroke-width=".642" class="colorStrokeffffff svgStroke"></line>
          </g>
          <g fill="#000000" class="color000000 svgShape">
            <line x1="150" x2="150" y1="90.7" y2="98.7" fill="none" stroke="#ffffff" stroke-linecap="round" stroke-linejoin="round" stroke-miterlimit="10" stroke-width=".642" class="colorStrokeffffff svgStroke"></line>
            <line x1="153.7" x2="153.7" y1="88.4" y2="101.1" fill="none" stroke="#ffffff" stroke-linecap="round" stroke-linejoin="round" stroke-miterlimit="10" stroke-width=".642" class="colorStrokeffffff svgStroke"></line>
            <line x1="157.4" x2="157.4" y1="86" y2="103.4" fill="none" stroke="#ffffff" stroke-linecap="round" stroke-linejoin="round" stroke-miterlimit="10" stroke-width=".642" class="colorStrokeffffff svgStroke"></line>
            <line x1="161.2" x2="161.2" y1="83.7" y2="105.8" fill="none" stroke="#ffffff" stroke-linecap="round" stroke-linejoin="round" stroke-miterlimit="10" stroke-width=".642" class="colorStrokeffffff svgStroke"></line>
          </g>
          <g fill="#000000" class="color000000 svgShape">
            <line x1="172.4" x2="172.4" y1="98.7" y2="90.7" fill="none" stroke="#ffffff" stroke-linecap="round" stroke-linejoin="round" stroke-miterlimit="10" stroke-width=".642" class="colorStrokeffffff svgStroke"></line>
            <line x1="168.6" x2="168.6" y1="101.1" y2="88.4" fill="none" stroke="#ffffff" stroke-linecap="round" stroke-linejoin="round" stroke-miterlimit="10" stroke-width=".642" class="colorStrokeffffff svgStroke"></line>
            <line x1="164.9" x2="164.9" y1="103.4" y2="86" fill="none" stroke="#ffffff" stroke-linecap="round" stroke-linejoin="round" stroke-miterlimit="10" stroke-width=".642" class="colorStrokeffffff svgStroke"></line>
          </g>
        </g>
      </g>
      <g fill="#000000" class="color000000 svgShape">
        <path fill="none" stroke="#000000" stroke-linecap="round" stroke-linejoin="round" stroke-miterlimit="10" stroke-width="1.284" d="M218.3,79c9.8,9.8,9.8,25.7,0,35.6" class="colorStroke000000 svgStroke"></path>
        <path fill="none" stroke="#000000" stroke-linecap="round" stroke-linejoin="round" stroke-miterlimit="10" stroke-width="1.284" d="M225.1,72.2c13.6,13.6,13.6,35.6,0,49.1" class="colorStroke000000 svgStroke"></path>
        <path fill="none" stroke="#000000" stroke-linecap="round" stroke-linejoin="round" stroke-miterlimit="10" stroke-width="1.284" d="M232.1,65.2c17.4,17.4,17.4,45.7,0,63.2" class="colorStroke000000 svgStroke"></path>
      </g>
      <g fill="#000000" class="color000000 svgShape">
        <path fill="none" stroke="#000000" stroke-linecap="round" stroke-linejoin="round" stroke-miterlimit="10" stroke-width="1.284" d="M83.1,115.4c-10.3-10.3-10.3-27,0-37.3" class="colorStroke000000 svgStroke"></path>
        <path fill="none" stroke="#000000" stroke-linecap="round" stroke-linejoin="round" stroke-miterlimit="10" stroke-width="1.284" d="M75.9,122.6c-14.2-14.2-14.2-37.4,0-51.6" class="colorStroke000000 svgStroke"></path>
        <path fill="none" stroke="#000000" stroke-linecap="round" stroke-linejoin="round" stroke-miterlimit="10" stroke-width="1.284" d="M68.6,129.9c-18.3-18.3-18.3-48,0-66.3" class="colorStroke000000 svgStroke"></path>
      </g>
    </g>
  </g>
</svg>
