<svg width="22" height="31" viewBox="0 0 22 31" fill="none" xmlns="http://www.w3.org/2000/svg">
<path d="M10.4659 19.4466V27.0209C10.4659 27.3113 10.3407 27.5897 10.118 27.795C9.89541 28.0003 9.59336 28.1156 9.27836 28.1156C8.96348 28.1156 8.66143 28.0003 8.4387 27.795C8.21598 27.5897 8.09086 27.3113 8.09086 27.0209V19.4571C8.42155 19.6797 8.81791 19.8039 9.22723 19.8133C9.67336 19.825 10.1105 19.6956 10.4659 19.4466ZM20.5795 17.2571C20.2781 17.2571 19.989 17.3675 19.776 17.5639C19.5629 17.7603 19.4431 18.0269 19.4431 18.3047V19.6247C19.4431 19.9151 19.5682 20.1935 19.791 20.3988C20.0136 20.6041 20.3156 20.7194 20.6306 20.7194C20.9456 20.7194 21.2477 20.6041 21.4703 20.3988C21.693 20.1935 21.8181 19.9151 21.8181 19.6247V18.3571C21.827 18.2068 21.8006 18.0566 21.7409 17.9166C21.6811 17.7767 21.5894 17.6501 21.4718 17.5458C21.3543 17.4414 21.2137 17.3616 21.0598 17.3118C20.9059 17.262 20.742 17.2433 20.5795 17.2571ZM5.51132 22.3171C5.10242 22.3058 4.70658 22.1817 4.37495 21.9609V29.5561C4.37495 29.8479 4.50066 30.1277 4.72443 30.334C4.94819 30.5402 5.25168 30.6561 5.56814 30.6561C5.88459 30.6561 6.18808 30.5402 6.41184 30.334C6.63561 30.1277 6.76132 29.8479 6.76132 29.5561V22.0133C6.39024 22.2344 5.95241 22.3408 5.51132 22.3171ZM16.875 14.9837C16.721 14.9766 16.5671 14.9985 16.4226 15.048C16.2781 15.0974 16.1461 15.1735 16.0344 15.2714C15.9228 15.3695 15.834 15.4873 15.7734 15.618C15.7128 15.7486 15.6815 15.8893 15.6818 16.0314V21.8666C15.6818 22.1584 15.8075 22.4382 16.0312 22.6444C16.2551 22.8507 16.5585 22.9666 16.875 22.9666C17.1914 22.9666 17.495 22.8507 17.7187 22.6444C17.9425 22.4382 18.0681 22.1584 18.0681 21.8666V16.1047C18.0772 15.9535 18.0506 15.8023 17.9902 15.6615C17.9297 15.5207 17.837 15.3937 17.7181 15.2891C17.5993 15.1846 17.4573 15.1049 17.302 15.0559C17.1467 15.0068 16.9815 14.9893 16.8181 15.0047L16.875 14.9837ZM13.1022 17.2256C12.6742 17.2229 12.2576 17.0986 11.909 16.8694V24.4856C11.909 24.7774 12.0347 25.0572 12.2585 25.2635C12.4823 25.4698 12.7857 25.5856 13.1022 25.5856C13.4187 25.5856 13.7221 25.4698 13.946 25.2635C14.1697 25.0572 14.2954 24.7774 14.2954 24.4856V16.8799C13.935 17.1275 13.4948 17.2565 13.0454 17.2466L13.1022 17.2256ZM2.93177 23.0609V1.78373C2.92878 1.52437 2.81492 1.27659 2.61492 1.09417C2.41492 0.911748 2.14493 0.809438 1.86359 0.809448H1.61359C1.33225 0.809438 1.06226 0.911748 0.862262 1.09417C0.662262 1.27659 0.548399 1.52437 0.54541 1.78373V23.0609C0.54541 23.322 0.657956 23.5725 0.858274 23.7572C1.05859 23.9419 1.3303 24.0456 1.61359 24.0456H1.86359C2.1469 24.0456 2.41859 23.9419 2.61891 23.7572C2.81924 23.5725 2.93177 23.322 2.93177 23.0609ZM5.63632 21.5104H5.38632C5.10302 21.5104 4.83132 21.4067 4.631 21.222C4.43068 21.0373 4.31814 20.7868 4.31814 20.5256V4.31897C4.32114 4.05962 4.43499 3.81182 4.63499 3.62941C4.83499 3.44699 5.10498 3.34468 5.38632 3.34469H5.63632C5.91766 3.34468 6.18765 3.44699 6.38765 3.62941C6.58765 3.81182 6.70151 4.05962 6.7045 4.31897V20.5466C6.7045 20.8078 6.59195 21.0582 6.39164 21.2429C6.19132 21.4276 5.91961 21.5314 5.63632 21.5314V21.5104ZM9.39768 19.0171H9.13632C8.85609 19.0171 8.58723 18.9144 8.38905 18.7317C8.19086 18.549 8.0795 18.3012 8.0795 18.0428V6.83326C8.07802 6.70443 8.10427 6.57661 8.15666 6.45719C8.20905 6.33778 8.28666 6.22914 8.38495 6.13756C8.48325 6.04597 8.6003 5.97327 8.72927 5.92365C8.85825 5.87404 8.99655 5.84849 9.13632 5.8485H9.39768C9.67905 5.85126 9.9478 5.95622 10.1456 6.1406C10.3436 6.32498 10.4545 6.57389 10.4545 6.83326V18.0428C10.4545 18.3012 10.3431 18.549 10.145 18.7317C9.94677 18.9144 9.67802 19.0171 9.39768 19.0171ZM13.159 16.4504H12.9204C12.639 16.4504 12.369 16.3482 12.169 16.1657C11.969 15.9833 11.8552 15.7355 11.8522 15.4761V9.44183C11.8429 9.30731 11.8636 9.17249 11.9131 9.04562C11.9626 8.91886 12.0398 8.80268 12.14 8.70451C12.2401 8.60625 12.361 8.5281 12.4953 8.47467C12.6295 8.42134 12.7742 8.3939 12.9204 8.39421H13.1704C13.4537 8.39421 13.7254 8.49792 13.9257 8.68262C14.1261 8.86731 14.2386 9.1178 14.2386 9.37897V15.4552C14.2401 15.5854 14.2136 15.7146 14.1605 15.8352C14.1076 15.9559 14.0292 16.0657 13.9297 16.1583C13.8304 16.2508 13.7122 16.3243 13.5818 16.3744C13.4514 16.4246 13.3117 16.4504 13.1704 16.4504H13.159ZM16.9318 14.198H16.6818C16.3985 14.198 16.1268 14.0943 15.9264 13.9096C15.7261 13.7249 15.6136 13.4744 15.6136 13.2133V11.6523C15.6165 11.3929 15.7304 11.1452 15.9304 10.9628C16.1304 10.7803 16.4004 10.678 16.6818 10.678H16.9318C17.2131 10.678 17.4831 10.7803 17.6831 10.9628C17.8831 11.1452 17.997 11.3929 18 11.6523V13.2133C18 13.4726 17.889 13.7216 17.6911 13.9059C17.4932 14.0903 17.2245 14.1953 16.9431 14.198H16.9318Z" fill="url(#paint0_linear_302_2840)"/>
<defs>
<linearGradient id="paint0_linear_302_2840" x1="0.54541" y1="18.619" x2="14.75" y2="18.619" gradientUnits="userSpaceOnUse">
<stop stop-color="#39CABD"/>
<stop offset="1" stop-color="#4AB5CA"/>
</linearGradient>
</defs>
</svg>
